<svg width="73" height="35" viewBox="0 0 73 35" fill="none" xmlns="http://www.w3.org/2000/svg">
<path d="M4.192 27.064L4.128 27.032H3.488C3.46667 27.032 3.424 27.032 3.36 27.032C3.31733 27.032 3.264 27.0213 3.2 27C3.136 26.9573 3.04 26.9253 2.912 26.904L2.176 27.032C2.02667 26.968 1.83467 26.904 1.6 26.84L0.96 26.968C0.789333 26.9253 0.672 26.8827 0.608 26.84L0.576 26.744L0.8 22.616C0.992 22.2533 1.088 22.0293 1.088 21.944C1.088 21.9013 1.088 21.8587 1.088 21.816C1.088 21.7733 1.07733 21.72 1.056 21.656C1.01333 21.5067 1.00267 21.4 1.024 21.336C1.024 21.2293 1.056 21.1013 1.12 20.952L1.216 20.696L1.024 20.024L1.12 19.736C1.14133 19.6933 1.16267 19.6293 1.184 19.544C1.20533 19.4587 1.22667 19.352 1.248 19.224L1.504 18.84L1.184 18.616L1.248 18.36V18.328C1.248 18.2427 1.20533 18.1573 1.12 18.072L1.152 17.944C1.19467 17.9227 1.248 17.9013 1.312 17.88C1.376 17.8373 1.45067 17.784 1.536 17.72L1.6 17.688C1.36533 17.496 1.248 17.368 1.248 17.304L1.376 17.08C1.376 17.0587 1.312 17.016 1.184 16.952V16.568C1.184 16.5253 1.184 16.4827 1.184 16.44C1.20533 16.3973 1.22667 16.344 1.248 16.28C1.29067 16.216 1.36533 16.184 1.472 16.184L1.536 16.12C1.344 15.416 1.248 15.0107 1.248 14.904L1.312 14.712L1.376 14.488L1.408 14.008C1.42933 13.9867 1.45067 13.9653 1.472 13.944C1.51467 13.9013 1.568 13.8587 1.632 13.816L1.376 13.528C1.35467 13.4213 1.35467 13.3253 1.376 13.24C1.312 12.92 1.28 12.6853 1.28 12.536C1.28 12.472 1.30133 12.4187 1.344 12.376C1.36533 12.376 1.39733 12.3973 1.44 12.44C1.46133 12.3547 1.472 12.28 1.472 12.216C1.49333 12.152 1.504 12.1093 1.504 12.088C1.48267 11.9813 1.472 11.9173 1.472 11.896C1.472 11.8533 1.46133 11.8533 1.44 11.896L1.568 11.032C1.58933 10.9893 1.61067 10.9467 1.632 10.904C1.65333 10.8613 1.67467 10.8187 1.696 10.776L1.6 10.52C1.51467 10.3707 1.472 10.2853 1.472 10.264C1.472 10.2427 1.52533 10.104 1.632 9.848L1.92 9.688C1.856 9.624 1.76 9.592 1.632 9.592C1.632 9.528 1.62133 9.464 1.6 9.4C1.6 9.336 1.6 9.272 1.6 9.208C1.6 8.84533 1.61067 8.58933 1.632 8.44C1.65333 8.26933 1.67467 8.216 1.696 8.28L1.632 8.12C1.61067 8.07733 1.6 8.024 1.6 7.96C1.6 7.74667 1.792 7.66133 2.176 7.704L2.368 7.768C2.47467 7.832 2.53867 7.864 2.56 7.864L2.688 7.8C2.73067 7.77867 2.784 7.768 2.848 7.768C2.912 7.832 2.976 7.88533 3.04 7.928C3.296 8.03467 3.46667 8.088 3.552 8.088C3.59467 8.088 3.63733 8.03467 3.68 7.928C3.76533 7.90667 3.84 7.896 3.904 7.896C3.968 7.87467 4.04267 7.87467 4.128 7.896C4.17067 7.896 4.26667 7.992 4.416 8.184C4.544 8.39733 4.61867 8.504 4.64 8.504C4.64 8.504 4.75733 8.41867 4.992 8.248C5.184 8.07733 5.29067 8.00267 5.312 8.024L5.536 8.056C5.55733 8.056 5.6 8.024 5.664 7.96C5.74933 7.91733 5.80267 7.896 5.824 7.896C5.90933 7.896 5.96267 7.96 5.984 8.088C6.00533 8.216 6.112 8.29067 6.304 8.312H6.4C6.44267 8.22667 6.464 8.16267 6.464 8.12H6.592L7.52 8.312C7.62667 8.312 7.69067 8.35467 7.712 8.44L7.808 8.664C8.10667 8.49333 8.23467 8.408 8.192 8.408C8.256 8.45067 8.36267 8.52533 8.512 8.632L8.896 8.792C8.98133 8.856 9.024 8.93067 9.024 9.016C9.024 9.08 9.01333 9.144 8.992 9.208L8.928 9.368C8.928 9.496 9.09867 9.54933 9.44 9.528H9.856C9.856 9.54933 9.856 9.592 9.856 9.656C9.87733 9.69867 9.89867 9.752 9.92 9.816C9.96267 9.83733 9.99467 9.86933 10.016 9.912C10.0587 9.95467 10.1013 9.99733 10.144 10.04C10.336 10.296 10.432 10.456 10.432 10.52C10.432 10.584 10.4107 10.6373 10.368 10.68L10.4 10.744C10.4213 10.7867 10.432 10.8293 10.432 10.872L10.208 11.192C10.208 11.3627 10.3787 11.4907 10.72 11.576L10.688 11.64C10.7307 11.768 10.752 11.9067 10.752 12.056L10.848 12.184V12.408L10.912 12.536L10.88 13.4C10.7947 13.4853 10.72 13.592 10.656 13.72C10.656 13.7413 10.6773 13.8053 10.72 13.912C10.8267 14.0613 10.8587 14.2533 10.816 14.488L10.624 15.096C10.624 15.1387 10.624 15.2027 10.624 15.288C10.624 15.3733 10.6133 15.4693 10.592 15.576C10.5493 15.7467 10.4747 15.992 10.368 16.312L10.176 16.504C10.2187 16.7173 10.208 16.856 10.144 16.92C10.08 17.0053 10.048 17.0587 10.048 17.08C10.0267 17.208 10.0373 17.336 10.08 17.464L9.728 17.848C9.728 17.8907 9.71733 17.9333 9.696 17.976C9.65333 17.976 9.568 17.9973 9.44 18.04C9.39733 18.0827 9.35467 18.2213 9.312 18.456C9.29067 18.5413 9.20533 18.616 9.056 18.68C8.97067 18.7013 8.90667 18.7333 8.864 18.776C8.84267 18.7973 8.82133 18.8187 8.8 18.84C8.77867 18.8827 8.71467 19 8.608 19.192C8.58667 19.2133 8.26667 19.352 7.648 19.608L7.232 19.64L6.688 19.8C6.64533 19.7787 6.56 19.7467 6.432 19.704L6.24 19.736C6.176 19.7573 6.12267 19.768 6.08 19.768L5.664 19.64L5.184 19.544H4.992C4.82133 19.544 4.65067 19.6293 4.48 19.8L4.512 20.472C4.49067 20.5147 4.42667 20.5893 4.32 20.696C4.36267 20.8453 4.384 20.984 4.384 21.112C4.384 21.2187 4.384 21.3147 4.384 21.4C4.384 21.5493 4.37333 21.6453 4.352 21.688L4.416 22.2C4.33067 22.3067 4.288 22.3813 4.288 22.424L4.384 23.192C4.256 23.2773 4.192 23.4053 4.192 23.576C4.192 23.7467 4.21333 23.8427 4.256 23.864L4.32 23.896C4.256 25.304 4.16 26.2107 4.032 26.616C4.07467 26.7013 4.128 26.7867 4.192 26.872V27.064ZM2.624 8.888C2.688 8.824 2.70933 8.78133 2.688 8.76L2.496 8.728L2.464 8.824L2.624 8.888ZM2.336 9.176L2.4 9.112C2.4 9.00533 2.368 8.87733 2.304 8.728C2.21867 8.81333 2.176 8.89867 2.176 8.984L2.208 9.176H2.336ZM5.248 9.08C5.312 9.10133 5.376 9.06933 5.44 8.984C5.39733 8.94133 5.344 8.93067 5.28 8.952C5.25867 8.97333 5.248 9.016 5.248 9.08ZM7.712 9.944C7.73333 9.90133 7.72267 9.85867 7.68 9.816C7.63733 9.77333 7.59467 9.77333 7.552 9.816C7.552 9.90133 7.60533 9.944 7.712 9.944ZM4.896 10.712L4.928 10.648C4.90667 10.584 4.864 10.552 4.8 10.552C4.75733 10.6373 4.72533 10.6907 4.704 10.712H4.896ZM4.512 16.664C4.512 16.664 4.576 16.6427 4.704 16.6L4.832 16.536C4.87467 16.5573 4.96 16.568 5.088 16.568L5.408 16.536C5.536 16.536 5.61067 16.568 5.632 16.632C5.76 16.5893 5.84533 16.568 5.888 16.568L6.144 16.632C6.18667 16.632 6.25067 16.6 6.336 16.536C6.4 16.472 6.44267 16.44 6.464 16.44C6.464 16.44 6.496 16.4613 6.56 16.504C6.60267 16.504 6.688 16.44 6.816 16.312C6.944 16.1413 7.04 16.0453 7.104 16.024C7.18933 15.576 7.22133 15.3413 7.2 15.32L7.264 14.776C7.328 14.648 7.392 14.488 7.456 14.296L7.424 13.88C7.40267 13.7307 7.38133 13.6133 7.36 13.528C7.36 13.4213 7.36 13.336 7.36 13.272C7.46667 13.208 7.56267 13.112 7.648 12.984C7.648 12.8987 7.584 12.8133 7.456 12.728L7.2 12.536C7.22133 12.472 7.232 12.3973 7.232 12.312C7.232 12.0987 7.136 11.96 6.944 11.896C6.96533 11.896 6.976 11.8853 6.976 11.864C6.976 11.8 6.89067 11.6827 6.72 11.512L6.432 11.192C6.38933 11.192 6.35733 11.1813 6.336 11.16C6.272 11.224 6.24 11.288 6.24 11.352H5.952C5.888 11.3307 5.80267 11.32 5.696 11.32C5.184 11.32 4.928 11.416 4.928 11.608L5.056 11.864C5.056 11.9067 4.98133 11.992 4.832 12.12C4.96 12.3333 5.024 12.4933 5.024 12.6C5.00267 12.8133 4.88533 12.9307 4.672 12.952C4.71467 13.08 4.768 13.176 4.832 13.24C4.85333 13.3253 4.864 13.4427 4.864 13.592C4.864 13.72 4.864 13.8693 4.864 14.04L4.8 14.136V14.456L4.832 14.584C4.85333 14.648 4.864 14.7227 4.864 14.808C4.864 14.8507 4.832 14.8613 4.768 14.84C4.87467 14.9467 4.85333 15.0533 4.704 15.16L4.8 15.352C4.62933 15.48 4.544 15.576 4.544 15.64L4.608 15.768L4.704 15.992C4.512 16.2053 4.416 16.3653 4.416 16.472L4.384 16.6L4.512 16.664ZM1.824 11.832C1.888 11.832 1.92 11.768 1.92 11.64C1.87733 11.64 1.83467 11.6613 1.792 11.704C1.77067 11.7253 1.78133 11.768 1.824 11.832ZM9.12 12.312C9.14133 12.2907 9.152 12.2587 9.152 12.216C9.152 12.152 9.10933 12.12 9.024 12.12C9.00267 12.184 9.03467 12.248 9.12 12.312ZM2.784 12.792C2.848 12.7493 2.88 12.6853 2.88 12.6C2.83733 12.5787 2.79467 12.5893 2.752 12.632C2.73067 12.6533 2.74133 12.7067 2.784 12.792ZM9.856 12.92L9.92 12.888C9.94133 12.888 9.96267 12.8773 9.984 12.856L9.92 12.76C9.89867 12.7813 9.888 12.8027 9.888 12.824C9.888 12.8453 9.87733 12.8773 9.856 12.92ZM9.312 13.592C9.33333 13.5707 9.38667 13.5387 9.472 13.496C9.45067 13.4747 9.39733 13.4747 9.312 13.496V13.592ZM10.24 14.648L10.304 14.552C10.2827 14.5307 10.272 14.4667 10.272 14.36C10.208 14.232 10.1013 14.168 9.952 14.168H9.888C9.80267 14.168 9.71733 14.2107 9.632 14.296V14.36C9.78133 14.3813 9.984 14.4773 10.24 14.648ZM2.08 16.92C2.10133 16.8773 2.09067 16.8347 2.048 16.792C2.02667 16.7493 1.984 16.76 1.92 16.824C1.92 16.888 1.97333 16.92 2.08 16.92ZM4.544 17.272C4.608 17.2933 4.66133 17.2827 4.704 17.24C4.72533 17.2187 4.71467 17.1653 4.672 17.08C4.62933 17.08 4.58667 17.144 4.544 17.272ZM8.704 17.272C8.768 17.2933 8.832 17.2613 8.896 17.176C8.87467 17.1547 8.84267 17.144 8.8 17.144C8.736 17.144 8.704 17.1867 8.704 17.272ZM5.824 17.624L5.76 17.528L5.728 17.56L5.76 17.624H5.824ZM6.336 18.072L6.368 17.912L6.304 17.848L6.144 17.816L6.048 17.912C6.06933 17.9333 6.08 17.9653 6.08 18.008L6.336 18.072ZM3.2 19.032C3.24267 19.032 3.27467 19.0213 3.296 19V18.84L3.104 18.744C3.168 18.7227 3.168 18.616 3.104 18.424C3.12533 18.3813 3.136 18.296 3.136 18.168L2.688 18.296V18.456C2.66667 18.4987 2.73067 18.6053 2.88 18.776C3.05067 18.9467 3.15733 19.032 3.2 19.032ZM6.56 19.064L6.656 18.936L6.496 18.904L6.432 19.032C6.45333 19.0533 6.496 19.064 6.56 19.064ZM6.976 19.032L7.072 18.904H6.848L6.976 19.032ZM5.312 19.256C5.39733 19.2773 5.46133 19.2667 5.504 19.224L5.44 19.16C5.33333 19.2027 5.29067 19.2347 5.312 19.256ZM3.072 21.752L2.976 21.656C2.93333 21.656 2.90133 21.6667 2.88 21.688L3.072 21.752ZM3.072 22.264C3.09333 22.2213 3.08267 22.1787 3.04 22.136C3.01867 22.1147 2.96533 22.1253 2.88 22.168C2.88 22.232 2.944 22.264 3.072 22.264ZM3.84 22.296C3.86133 22.2747 3.872 22.2213 3.872 22.136H3.744C3.76533 22.1573 3.79733 22.2107 3.84 22.296ZM1.76 24.344C1.78133 24.3227 1.80267 24.3013 1.824 24.28C1.86667 24.2587 1.89867 24.2373 1.92 24.216L1.728 24.12L1.664 24.184C1.70667 24.2693 1.73867 24.3227 1.76 24.344ZM1.12 24.312C1.16267 24.3547 1.20533 24.3547 1.248 24.312L1.216 24.216C1.19467 24.216 1.16267 24.248 1.12 24.312ZM2.912 26.168C2.93333 26.1253 2.92267 26.0827 2.88 26.04C2.85867 26.0187 2.80533 26.0293 2.72 26.072C2.72 26.136 2.784 26.168 2.912 26.168ZM15.003 27.416C14.9603 27.416 14.9497 27.416 14.971 27.416C14.9497 27.416 14.907 27.3947 14.843 27.352L14.683 27.288C14.6403 27.3093 14.587 27.32 14.523 27.32C14.4803 27.32 14.427 27.3307 14.363 27.352L13.915 27.096C13.851 26.9467 13.7657 26.872 13.659 26.872C13.6377 26.8507 13.6163 26.8507 13.595 26.872C13.5737 26.8933 13.531 26.904 13.467 26.904C13.467 26.904 13.3603 26.8187 13.147 26.648L12.891 26.552C12.827 26.488 12.7523 26.4133 12.667 26.328C12.603 26.2427 12.5177 26.1467 12.411 26.04L12.155 25.848V25.784C12.155 25.6987 12.1017 25.5707 11.995 25.4C11.8883 25.2933 11.803 25.208 11.739 25.144C11.6963 25.0587 11.6643 25.0053 11.643 24.984V24.6C11.7497 24.664 11.8137 24.6533 11.835 24.568C11.8777 24.504 11.835 24.44 11.707 24.376C11.6217 24.312 11.579 24.2587 11.579 24.216V23.832C11.579 23.768 11.579 23.704 11.579 23.64C11.579 23.576 11.5683 23.512 11.547 23.448C11.5257 23.3413 11.5043 23.2453 11.483 23.16C11.483 23.0533 11.4937 22.9573 11.515 22.872L11.579 22.552C11.5577 22.424 11.547 22.296 11.547 22.168C11.547 22.0187 11.547 21.8693 11.547 21.72C11.547 21.6347 11.579 21.528 11.643 21.4L11.739 21.144C11.7177 20.9733 11.6963 20.792 11.675 20.6C11.6537 20.3867 11.6323 20.1733 11.611 19.96C11.611 19.896 11.6963 19.6933 11.867 19.352C11.9097 19.3307 11.9523 19.3093 11.995 19.288C12.0377 19.2667 12.0803 19.2347 12.123 19.192C12.123 19.1707 12.027 19.096 11.835 18.968L11.739 18.296C11.739 18.1893 11.7817 18.1253 11.867 18.104C11.931 18.0613 11.9523 17.9867 11.931 17.88L12.347 17.592C12.3257 17.5067 12.251 17.4533 12.123 17.432C12.1017 17.432 12.027 17.4533 11.899 17.496C11.835 17.4533 11.803 17.4107 11.803 17.368C11.803 17.24 11.867 17.1333 11.995 17.048C12.123 16.9413 12.187 16.8773 12.187 16.856L12.027 16.312C12.027 16.312 12.1123 16.1627 12.283 15.864C12.4323 15.8427 12.507 15.8 12.507 15.736C12.507 15.6933 12.475 15.64 12.411 15.576C12.3257 15.512 12.283 15.4587 12.283 15.416C12.283 15.3947 12.3043 15.3627 12.347 15.32C12.411 15.192 12.475 14.9573 12.539 14.616L12.731 14.424L12.827 14.104C12.955 14.0613 13.1043 13.9973 13.275 13.912L13.691 13.4C13.9043 13.1227 14.0857 12.9947 14.235 13.016L14.331 13.048C14.331 13.0267 14.4163 12.9947 14.587 12.952C15.099 12.7813 15.387 12.7067 15.451 12.728L15.611 12.76C15.739 12.6747 15.835 12.6 15.899 12.536L16.059 12.568C16.1017 12.568 16.1337 12.5787 16.155 12.6C16.1763 12.6213 16.1977 12.632 16.219 12.632L16.475 12.6L16.763 12.856C16.763 12.856 16.827 12.8347 16.955 12.792L17.115 12.728C17.2003 12.7707 17.2963 12.8133 17.403 12.856C17.5097 12.8987 17.6163 12.9413 17.723 12.984C17.8297 12.9413 17.979 12.9413 18.171 12.984L18.139 13.144V13.176C18.139 13.304 18.2563 13.368 18.491 13.368H18.747C18.747 13.368 18.8857 13.624 19.163 14.136L19.355 14.072C19.4403 14.072 19.4937 14.104 19.515 14.168L19.867 15.384C19.8457 15.4267 19.835 15.5013 19.835 15.608C19.835 15.6933 19.835 15.7893 19.835 15.896L19.931 16.12C19.9737 16.248 19.995 16.312 19.995 16.312L19.931 16.408C19.9097 16.4293 19.899 16.4613 19.899 16.504V16.984C19.8777 17.0053 19.8563 17.048 19.835 17.112C19.8137 17.1547 19.7923 17.2187 19.771 17.304C19.643 17.3253 19.579 17.368 19.579 17.432C19.579 17.496 19.675 17.6133 19.867 17.784C20.0377 17.9547 20.123 18.0613 20.123 18.104C20.123 18.1467 20.0697 18.168 19.963 18.168L19.867 18.616C19.8457 18.6373 19.8137 18.7013 19.771 18.808C19.771 18.936 19.835 19.2133 19.963 19.64C19.8777 19.6827 19.8137 19.736 19.771 19.8C19.771 19.8 19.771 19.8853 19.771 20.056L19.803 20.376C19.803 20.3973 19.803 20.44 19.803 20.504C19.803 20.5467 19.7923 20.6107 19.771 20.696L19.739 21.016H19.579C19.4083 21.016 19.2697 20.9307 19.163 20.76C19.0777 20.6107 19.003 20.536 18.939 20.536C18.9177 20.536 18.8537 20.6 18.747 20.728C18.619 20.856 18.5337 20.92 18.491 20.92L18.139 20.888C18.0323 20.8667 17.947 20.8667 17.883 20.888C17.819 20.888 17.7763 20.888 17.755 20.888L17.083 20.6C16.9337 20.728 16.763 20.792 16.571 20.792C16.3363 20.792 16.1337 20.7173 15.963 20.568C15.9203 20.6107 15.899 20.6427 15.899 20.664H15.419C15.3977 20.664 15.387 20.664 15.387 20.664C15.387 20.6427 15.3763 20.632 15.355 20.632H15.227C15.035 20.632 14.875 20.7493 14.747 20.984V21.112C14.7257 21.1547 14.6937 21.2187 14.651 21.304C14.6297 21.368 14.5977 21.4427 14.555 21.528C14.555 21.5493 14.5763 21.5813 14.619 21.624L14.683 21.752V21.816C14.683 21.8373 14.683 21.88 14.683 21.944C14.683 21.9867 14.6723 22.0507 14.651 22.136C14.6723 22.2 14.683 22.3067 14.683 22.456C14.683 22.5413 14.6297 22.616 14.523 22.68L14.459 23.736C14.587 23.8427 14.6403 24.024 14.619 24.28H15.003C15.131 24.28 15.227 24.3227 15.291 24.408C15.355 24.4933 15.3977 24.536 15.419 24.536L15.643 24.44L15.867 24.6C15.931 24.6 15.9737 24.568 15.995 24.504L16.187 24.056V23.576L16.219 23.096C16.2403 23.032 16.251 22.9787 16.251 22.936C16.2723 22.872 16.283 22.8293 16.283 22.808L16.251 22.712C16.2937 22.6267 16.315 22.5627 16.315 22.52C16.315 22.456 16.315 22.4133 16.315 22.392L16.251 22.104C16.3363 21.8907 16.443 21.784 16.571 21.784C16.7417 21.8693 16.9763 21.944 17.275 22.008L17.435 21.944C17.499 21.9227 17.5523 21.912 17.595 21.912C17.6377 21.912 17.7123 21.9973 17.819 22.168C18.0537 22.0827 18.171 22.04 18.171 22.04L18.427 22.2H18.491C18.747 22.2 18.9923 22.0933 19.227 21.88L19.771 22.392C19.6643 22.584 19.547 22.8293 19.419 23.128C19.3977 23.2347 19.3657 23.3627 19.323 23.512C19.3017 23.6613 19.259 23.8213 19.195 23.992C19.0457 24.056 18.971 24.1413 18.971 24.248C18.971 24.2907 19.003 24.3653 19.067 24.472C19.131 24.6 19.163 24.6853 19.163 24.728L19.099 24.824C19.1417 24.9307 19.131 25.0267 19.067 25.112L18.971 25.272C18.9923 25.2933 19.003 25.336 19.003 25.4C19.003 25.592 18.8643 25.752 18.587 25.88L18.523 25.944C18.5443 25.9653 18.555 25.9973 18.555 26.04C18.555 26.1893 18.4697 26.2853 18.299 26.328C18.0643 26.392 17.9257 26.4453 17.883 26.488C17.8403 26.552 17.7763 26.6267 17.691 26.712C17.6057 26.7973 17.5097 26.8933 17.403 27C16.9763 27.2773 16.6777 27.3947 16.507 27.352L16.123 27.256C16.0163 27.256 15.9097 27.288 15.803 27.352C15.6963 27.416 15.611 27.4373 15.547 27.416L15.419 27.384H15.259C15.1737 27.384 15.1097 27.384 15.067 27.384C15.0243 27.4053 14.9923 27.416 14.971 27.416C14.9923 27.416 15.003 27.416 15.003 27.416ZM15.643 13.944L15.707 13.816L15.611 13.752C15.611 13.816 15.6217 13.88 15.643 13.944ZM17.883 15.032C17.9897 15.032 18.0537 14.968 18.075 14.84L18.043 14.424H17.979C17.915 14.424 17.883 14.3707 17.883 14.264C17.8403 14.1573 17.787 14.104 17.723 14.104C17.6377 14.0613 17.5737 14.0933 17.531 14.2C17.5097 14.2213 17.499 14.2533 17.499 14.296C17.5203 14.3387 17.531 14.3813 17.531 14.424L17.563 14.648L17.467 14.744L17.883 15.032ZM15.067 15.448C15.2377 15.384 15.2377 15.3093 15.067 15.224C15.0243 15.2667 15.0243 15.3413 15.067 15.448ZM19.227 15.416L19.163 15.288L19.067 15.352L19.227 15.416ZM14.971 18.328L15.291 18.232L15.739 18.104C15.8883 18.104 16.0483 18.0933 16.219 18.072C16.3897 18.0293 16.5817 17.9867 16.795 17.944L16.891 17.56C16.9123 17.5387 16.9657 17.5067 17.051 17.464C16.9657 17.3787 16.891 17.2933 16.827 17.208C16.7843 17.1227 16.7737 17.0373 16.795 16.952L16.827 16.728V16.536C16.827 16.344 16.7417 16.184 16.571 16.056C16.5923 15.992 16.603 15.9067 16.603 15.8C16.603 15.6293 16.411 15.5333 16.027 15.512C15.963 15.512 15.8457 15.576 15.675 15.704L15.163 16.056C15.2483 16.12 15.259 16.2053 15.195 16.312C15.1737 16.3973 15.099 16.44 14.971 16.44V16.536C15.035 16.4933 15.099 16.5253 15.163 16.632C15.2057 16.7173 15.2163 16.7707 15.195 16.792L15.131 17.752C15.131 17.816 15.131 17.8693 15.131 17.912C15.1523 17.9547 15.163 17.976 15.163 17.976C15.163 18.04 15.131 18.072 15.067 18.072C15.003 18.0293 14.9497 17.976 14.907 17.912L14.811 17.976L14.779 18.168L14.971 18.328ZM17.211 16.376C17.2537 16.44 17.3177 16.44 17.403 16.376C17.339 16.184 17.275 16.184 17.211 16.376ZM15.163 17.944C15.163 17.9867 15.163 17.9973 15.163 17.976C15.163 17.976 15.163 17.9653 15.163 17.944ZM12.347 20.472C12.411 20.4293 12.4963 20.312 12.603 20.12L12.571 20.024H12.507C12.4003 20.024 12.2617 20.0773 12.091 20.184C12.155 20.2907 12.2403 20.3867 12.347 20.472ZM18.491 20.248C18.5123 20.184 18.5017 20.1307 18.459 20.088C18.4377 20.0667 18.3843 20.0773 18.299 20.12C18.299 20.1627 18.363 20.2053 18.491 20.248ZM12.955 24.536L13.211 24.408L13.179 24.28L13.019 24.248L12.955 24.312V24.28L12.923 24.152L12.827 24.12L12.763 24.472L12.955 24.536ZM15.387 25.048C15.4083 25.0053 15.3977 24.9627 15.355 24.92C15.3123 24.8773 15.2697 24.8773 15.227 24.92C15.227 24.9627 15.2803 25.0053 15.387 25.048ZM26.0018 27.48L25.4578 27.448C25.2871 27.4267 25.1484 27.416 25.0418 27.416C24.9564 27.416 24.9031 27.416 24.8818 27.416C24.5618 27.416 24.3698 27.4053 24.3058 27.384L23.7618 27.096C23.7191 27.0747 23.6658 27.0533 23.6018 27.032C23.5378 27.0107 23.4631 26.9893 23.3778 26.968C23.2498 26.904 23.1858 26.7973 23.1858 26.648C23.1431 26.6267 23.1004 26.616 23.0578 26.616C23.0151 26.5947 22.9724 26.584 22.9298 26.584C22.9298 26.392 22.8871 26.264 22.8018 26.2L22.5778 26.104C22.5351 26.0613 22.4818 25.944 22.4178 25.752L22.2898 25.432V25.336C22.2898 25.2933 22.2791 25.24 22.2578 25.176C22.2578 25.0907 22.2471 25.0053 22.2258 24.92C22.2258 24.7493 22.2258 24.6 22.2258 24.472C22.2471 24.344 22.2684 24.2373 22.2898 24.152C22.2044 24.1093 22.1404 24.0453 22.0978 23.96C22.0764 23.9173 22.0871 23.832 22.1298 23.704L22.1618 23.416C22.1831 23.3093 22.1938 23.2133 22.1938 23.128C22.1938 23.0427 22.2044 22.9573 22.2258 22.872C22.2258 22.7653 22.2578 22.6373 22.3218 22.488C22.4071 22.3387 22.4498 22.2427 22.4498 22.2C22.4498 22.1787 22.4284 22.1467 22.3858 22.104C22.3431 22.0613 22.3218 22.04 22.3218 22.04C22.3218 21.9973 22.3111 21.9653 22.2898 21.944C22.2898 21.9227 22.2898 21.9013 22.2898 21.88C22.2898 21.752 22.3218 21.624 22.3858 21.496C22.3004 21.3467 22.2578 21.1653 22.2578 20.952C22.2578 20.7813 22.3111 20.6213 22.4178 20.472C22.3538 20.3867 22.3004 20.3013 22.2578 20.216V19.384C22.2578 19.384 22.2364 19.3413 22.1938 19.256C22.1511 19.2133 22.1298 19.1707 22.1298 19.128C22.1298 19.064 22.2471 18.8293 22.4818 18.424C22.3111 18.3173 22.2258 18.2533 22.2258 18.232L22.3858 17.656C22.3858 17.6133 22.3751 17.5493 22.3538 17.464C22.3538 17.3787 22.3538 17.2827 22.3538 17.176L22.3218 16.664C22.3004 16.4293 22.3004 16.2373 22.3218 16.088C22.3431 15.9387 22.3431 15.8213 22.3218 15.736C22.2578 15.6293 22.1831 15.576 22.0978 15.576V15.416L22.3858 15.288C22.3858 15.2453 22.3751 15.2133 22.3538 15.192H21.8098V15.288C21.8098 15.3733 21.8524 15.448 21.9378 15.512C22.0231 15.576 22.0658 15.6293 22.0658 15.672L21.6818 15.64C21.5964 15.6187 21.5218 15.608 21.4578 15.608C21.4151 15.608 21.3831 15.608 21.3618 15.608L21.1698 15.672C21.0418 15.7147 20.9778 15.736 20.9778 15.736C20.8924 15.736 20.7644 15.6933 20.5938 15.608C20.5724 15.5653 20.5724 15.5013 20.5938 15.416L20.6578 15.224C20.6364 15.16 20.6258 15.096 20.6258 15.032C20.6258 14.968 20.6258 14.9147 20.6258 14.872C20.6684 14.744 20.7431 14.6693 20.8498 14.648C20.7644 14.5627 20.7111 14.4773 20.6898 14.392C20.6898 14.2853 20.6898 14.1787 20.6898 14.072L20.6578 13.912C20.7004 13.72 20.7111 13.6027 20.6898 13.56L20.5938 13.4C20.5511 13.3147 20.5297 13.2613 20.5297 13.24L20.6578 12.952C20.6791 12.9307 20.7111 12.92 20.7538 12.92C20.7964 12.92 20.8498 12.9093 20.9138 12.888C20.9778 12.8667 21.0204 12.824 21.0418 12.76H21.1058L21.4258 12.856L21.8418 12.984C21.8631 13.0053 21.8844 13.0373 21.9058 13.08C21.9271 13.1227 21.9484 13.176 21.9698 13.24C22.0551 13.176 22.1404 13.0907 22.2258 12.984C22.3111 12.8773 22.3964 12.7493 22.4818 12.6C22.6098 12.5147 22.6204 12.4507 22.5138 12.408C22.4498 12.3653 22.4178 12.3013 22.4178 12.216L22.4498 11.192C22.3431 10.808 22.2898 10.5413 22.2898 10.392L22.3858 10.136L22.4498 9.88C22.4498 9.816 22.4178 9.76267 22.3538 9.72C22.2898 9.67733 22.2578 9.592 22.2578 9.464L22.3218 9.144C22.3644 9.12267 22.4071 9.09067 22.4498 9.048C22.4924 9.00533 22.5564 8.952 22.6418 8.888C22.7698 8.76 22.8444 8.696 22.8658 8.696L23.1538 8.824C23.2391 8.84533 23.3031 8.87733 23.3458 8.92C23.3884 8.96267 23.4204 8.984 23.4418 8.984L23.5378 8.952H24.2418C24.3911 8.952 24.5084 8.96267 24.5938 8.984C24.7004 8.984 24.7858 8.984 24.8498 8.984L25.0738 8.92C25.2018 8.87733 25.2658 8.856 25.2658 8.856C25.4151 8.856 25.4898 8.96267 25.4898 9.176C25.4898 9.24 25.4791 9.32533 25.4578 9.432C25.4578 9.51733 25.4471 9.624 25.4258 9.752L25.2977 9.72C25.2124 9.72 25.1058 9.76267 24.9778 9.848C24.7858 9.95467 24.7111 10.0933 24.7538 10.264C24.7964 10.3067 24.8177 10.328 24.8177 10.328C24.8391 10.328 24.8818 10.296 24.9458 10.232C25.0311 10.1893 25.0844 10.168 25.1058 10.168C25.2124 10.168 25.3191 10.2533 25.4258 10.424C25.5111 10.5733 25.5538 10.6693 25.5538 10.712C25.5538 10.7547 25.5324 10.808 25.4898 10.872C25.4684 10.9147 25.4471 10.9467 25.4258 10.968C25.4044 11.3307 25.3831 11.5867 25.3618 11.736C25.3618 11.8853 25.3618 11.9173 25.3618 11.832C25.2124 11.8533 25.1378 11.9173 25.1378 12.024C25.1378 12.1307 25.2018 12.2053 25.3298 12.248V12.44C25.3298 12.568 25.3831 12.792 25.4898 13.112C25.5111 13.1547 25.5858 13.2187 25.7138 13.304H25.8098V13.08C25.8311 12.9947 25.8951 12.952 26.0018 12.952C26.4284 12.888 26.6098 12.856 26.5458 12.856L26.7058 12.888C26.7698 12.9093 26.8338 12.92 26.8978 12.92L27.2178 13.144C27.1964 13.2293 27.1858 13.3147 27.1858 13.4C27.1858 13.464 27.1858 13.5493 27.1858 13.656C27.3564 13.8267 27.4418 13.9013 27.4418 13.88C27.4418 13.944 27.3991 14.0187 27.3138 14.104C27.3351 14.1253 27.3564 14.1467 27.3778 14.168C27.3351 14.1893 27.3031 14.2747 27.2818 14.424L27.3138 14.52C27.3351 14.5627 27.3458 14.6053 27.3458 14.648C27.3458 14.8187 27.3351 14.9893 27.3138 15.16C27.3138 15.3093 27.3031 15.448 27.2818 15.576C27.2391 15.704 27.1751 15.768 27.0898 15.768H27.0578H27.0898C27.0898 15.7467 26.9938 15.704 26.8018 15.64C26.7164 15.6187 26.5458 15.608 26.2898 15.608C26.1831 15.608 25.9698 15.64 25.6498 15.704L25.5218 15.8C25.4364 15.8427 25.3938 15.864 25.3938 15.864L25.3618 16.152C25.3404 16.3653 25.3084 16.472 25.2658 16.472C25.3938 16.7707 25.4578 17.048 25.4578 17.304C25.4364 17.304 25.3831 17.432 25.2977 17.688C25.3191 17.6453 25.3298 17.7627 25.3298 18.04L25.2658 18.2C25.2231 18.328 25.2018 18.392 25.2018 18.392L25.2977 18.776C25.3404 18.8827 25.3618 18.9787 25.3618 19.064C25.3618 19.128 25.3618 19.1707 25.3618 19.192C25.3618 19.192 25.3191 19.2453 25.2338 19.352C25.2124 19.352 25.2018 19.4053 25.2018 19.512C25.2018 19.64 25.2551 19.7253 25.3618 19.768V20.824C25.3618 20.8453 25.3404 20.8773 25.2977 20.92C25.2551 21.0053 25.2338 21.0587 25.2338 21.08C25.2124 21.2293 25.2124 21.3573 25.2338 21.464C25.2764 21.6347 25.3084 21.7093 25.3298 21.688C25.2658 21.752 25.2124 21.816 25.1698 21.88C25.2124 21.9227 25.2658 22.072 25.3298 22.328C25.0738 22.4773 24.9458 22.6053 24.9458 22.712C24.9458 22.6693 25.0311 22.7973 25.2018 23.096C25.2018 23.096 25.2231 23.2667 25.2658 23.608L25.3298 23.704C25.3298 23.7893 25.3298 23.8853 25.3298 23.992C25.3298 24.0773 25.3404 24.184 25.3618 24.312C25.3618 24.312 25.4898 24.3973 25.7458 24.568C25.7458 24.6533 25.7991 24.728 25.9058 24.792H25.9698C26.0124 24.792 26.0871 24.7493 26.1938 24.664C26.2791 24.5787 26.3538 24.536 26.4178 24.536C26.4178 24.536 26.4604 24.5573 26.5458 24.6C26.5884 24.6427 26.6204 24.664 26.6418 24.664C26.6844 24.664 26.7484 24.6427 26.8338 24.6C26.8764 24.5573 26.9191 24.5253 26.9618 24.504C27.0044 24.4613 27.0578 24.4187 27.1218 24.376L27.2498 24.472V25.816C27.2498 25.8373 27.2391 25.8587 27.2178 25.88C27.1751 25.9227 27.1538 25.9547 27.1538 25.976V26.296C27.1111 26.3387 27.0684 26.3707 27.0258 26.392C27.0471 26.5413 27.0898 26.6587 27.1538 26.744C27.2178 26.808 27.2498 26.904 27.2498 27.032C27.2498 27.2453 27.1324 27.352 26.8978 27.352H26.8018C26.7804 27.352 26.7591 27.3413 26.7378 27.32C26.7378 27.32 26.7271 27.32 26.7058 27.32L26.3538 27.416C26.2471 27.4373 26.1618 27.448 26.0978 27.448C26.0551 27.4693 26.0231 27.48 26.0018 27.48ZM23.4098 13.88C23.5378 13.88 23.6018 13.816 23.6018 13.688L23.5378 13.496H23.3778C23.3138 13.56 23.2604 13.6133 23.2178 13.656C23.1964 13.6987 23.1751 13.7307 23.1538 13.752C23.1751 13.7733 23.1858 13.8053 23.1858 13.848H23.3138C23.3351 13.848 23.3458 13.8587 23.3458 13.88C23.3671 13.88 23.3884 13.88 23.4098 13.88ZM26.5458 13.816L26.6738 13.752L26.5138 13.656C26.4924 13.6773 26.4711 13.688 26.4498 13.688L26.5458 13.816ZM27.3778 14.168V14.232C27.3778 14.2107 27.3778 14.1893 27.3778 14.168ZM24.0498 14.616C24.0711 14.5947 24.0498 14.552 23.9858 14.488L23.8898 14.552C23.9111 14.5733 23.9324 14.584 23.9538 14.584C23.9964 14.584 24.0284 14.5947 24.0498 14.616ZM24.0818 15.128C24.1031 15.0853 24.0924 15.0427 24.0498 15C24.0071 14.9573 23.9538 14.9573 23.8898 15C23.9111 15.0427 23.9751 15.0853 24.0818 15.128ZM25.4578 17.304V17.336V17.304ZM24.5298 20.568L24.5938 20.536C24.6151 20.5147 24.6364 20.504 24.6578 20.504L24.5938 20.408C24.5724 20.4293 24.5618 20.4507 24.5618 20.472C24.5618 20.4933 24.5511 20.5253 24.5298 20.568ZM23.2818 21.592C23.3244 21.6133 23.3671 21.6027 23.4098 21.56C23.4524 21.5173 23.4418 21.464 23.3778 21.4C23.3138 21.4213 23.2818 21.4853 23.2818 21.592ZM23.0258 25.624L23.1858 25.784C23.2284 25.784 23.3031 25.7733 23.4098 25.752L23.5698 25.56L23.3458 25.368C23.3244 25.3893 23.2178 25.432 23.0258 25.496V25.624ZM22.1938 26.52C22.1511 26.52 22.0978 26.488 22.0338 26.424C22.0551 26.4027 22.0871 26.392 22.1298 26.392C22.1938 26.392 22.2151 26.4347 22.1938 26.52Z" fill="black"/>
<path d="M33.2228 27.576C33.0521 27.576 32.9134 27.544 32.8068 27.48C32.7214 27.416 32.6041 27.384 32.4548 27.384L32.4227 27.416C32.4227 27.416 32.4014 27.416 32.3588 27.416C32.3374 27.4373 32.2628 27.416 32.1348 27.352L31.8788 27.256L31.8468 27.288C31.8468 27.3093 31.8361 27.32 31.8148 27.32C31.8574 27.32 31.7721 27.2667 31.5588 27.16C31.4521 27.16 31.3241 27.1173 31.1748 27.032L30.7268 26.648C30.6841 26.6267 30.6201 26.6053 30.5348 26.584C30.4708 26.5627 30.3961 26.5413 30.3108 26.52C30.2041 26.456 30.0654 26.36 29.8948 26.232C29.7454 26.104 29.5854 25.9333 29.4148 25.72L29.3828 25.496L29.2228 25.272L29.1588 24.824C29.1374 24.7387 29.0948 24.6427 29.0308 24.536C28.9881 24.408 28.9454 24.2693 28.9028 24.12C28.8388 24.0987 28.7534 24.0133 28.6468 23.864C28.5188 23.5653 28.4548 23.3627 28.4548 23.256C28.4548 23.2347 28.4761 23.2027 28.5188 23.16C28.5614 23.096 28.5934 23.064 28.6148 23.064C28.5721 23 28.4654 22.9147 28.2948 22.808L28.2628 22.456C28.4121 22.3493 28.5081 22.296 28.5508 22.296H28.7747C28.8388 22.2747 28.9134 22.2533 28.9988 22.232C29.0841 22.2107 29.1801 22.1893 29.2868 22.168C29.3934 22.1253 29.4788 22.1573 29.5428 22.264C29.5641 22.3493 29.6281 22.392 29.7348 22.392C29.7561 22.392 29.8094 22.3173 29.8948 22.168L30.1828 21.784C30.5028 21.8907 30.6948 21.9333 30.7588 21.912L31.2708 21.56H31.5908V21.912L31.8788 22.04L31.8148 22.52C31.8148 22.5627 31.8468 22.616 31.9108 22.68C31.9748 22.744 32.0068 22.7867 32.0068 22.808C32.0281 22.8293 32.0174 22.8827 31.9748 22.968L31.8788 23.128C31.9214 23.2987 32.0174 23.448 32.1668 23.576C32.2094 23.576 32.2948 23.5973 32.4227 23.64C32.4227 23.7253 32.4548 23.8 32.5188 23.864C32.6041 23.928 32.6894 23.9387 32.7748 23.896C32.7748 23.896 32.7961 23.992 32.8388 24.184C32.8814 24.2907 32.9241 24.344 32.9668 24.344C32.9668 24.344 33.0094 24.3227 33.0948 24.28C33.1374 24.2373 33.1801 24.216 33.2228 24.216L33.3828 24.248C33.4254 24.248 33.4574 24.2587 33.4788 24.28C33.5001 24.3013 33.5214 24.312 33.5428 24.312C33.5641 24.312 33.6068 24.28 33.6708 24.216C33.7561 24.1733 33.8094 24.152 33.8308 24.152C33.8521 24.1307 33.9268 24.1413 34.0548 24.184L34.2468 24.248C34.2468 24.248 34.2894 24.2267 34.3748 24.184L34.4708 24.152C34.4708 24.152 34.5348 24.1733 34.6628 24.216C34.7054 24.1733 34.7268 24.1307 34.7268 24.088C34.7268 23.9173 34.7588 23.6933 34.8228 23.416L35.1108 23.384C35.2174 23.384 35.2814 23.3413 35.3028 23.256C35.2814 23.2347 35.2494 23.2027 35.2068 23.16C35.1641 23.1173 35.1214 23.0747 35.0788 23.032C35.0574 22.9467 35.0361 22.8613 35.0148 22.776C34.9934 22.6693 34.9721 22.5627 34.9508 22.456C34.9508 22.392 34.9828 22.328 35.0468 22.264C35.1108 22.2427 35.1641 22.2107 35.2068 22.168C35.2068 22.168 35.1641 22.1787 35.0788 22.2C34.9721 22.2 34.8868 22.0933 34.8228 21.88L34.6948 21.496C34.6308 21.4533 34.5774 21.4 34.5348 21.336C34.4494 21.2507 34.4068 21.1653 34.4068 21.08C34.4068 21.0373 34.4174 21.0053 34.4388 20.984C34.4174 20.9413 34.3534 20.9413 34.2468 20.984L34.0868 20.536C34.0654 20.536 34.0548 20.5467 34.0548 20.568C34.0121 20.6107 33.9801 20.632 33.9588 20.632C33.9374 20.6107 33.8948 20.6 33.8308 20.6L33.7668 20.312L33.5428 20.216L33.1588 19.864C33.1374 19.8213 33.0948 19.7893 33.0308 19.768C32.9881 19.7467 32.9241 19.7147 32.8388 19.672L32.8068 19.416C32.7854 19.3733 32.7534 19.3413 32.7108 19.32C32.6681 19.2773 32.6254 19.2347 32.5828 19.192H32.4227C32.4014 19.2133 32.3481 19.224 32.2628 19.224C32.2414 19.2453 32.1881 19.192 32.1028 19.064C32.0601 18.9787 32.0174 18.9147 31.9748 18.872C31.9321 18.808 31.8894 18.7653 31.8468 18.744L31.3348 18.424L31.0788 18.328L31.0468 18.04L30.5028 17.752L30.3748 17.528C30.3321 17.4213 30.2468 17.368 30.1188 17.368H30.0868C30.0228 17.304 29.9908 17.24 29.9908 17.176C29.6921 16.6853 29.5321 16.44 29.5108 16.44C29.5108 16.44 29.4468 16.4613 29.3188 16.504H29.2868C29.1801 16.504 29.1161 16.4293 29.0948 16.28L28.9988 15.896C28.7854 15.896 28.6468 15.6507 28.5828 15.16L28.2948 15.032C28.2734 14.8827 28.2521 14.776 28.2308 14.712C28.2308 14.648 28.2308 14.6267 28.2308 14.648C28.2521 14.456 28.2734 14.3813 28.2948 14.424C28.2734 14.3173 28.2094 14.2427 28.1028 14.2C28.0388 14.2 27.9854 14.168 27.9428 14.104C27.9214 13.8693 27.9214 13.6453 27.9428 13.432C27.9641 13.1973 27.9854 12.9627 28.0068 12.728C28.0068 12.664 27.9854 12.568 27.9428 12.44L27.8468 12.216L27.9428 12.088V11.96C27.9428 11.7467 27.9854 11.512 28.0708 11.256C28.0921 11.256 28.1348 11.256 28.1988 11.256C28.2628 11.2347 28.3161 11.192 28.3588 11.128L28.1668 10.712L28.5828 9.912C28.7534 9.61333 28.8921 9.464 28.9988 9.464L29.1908 9.496C29.2121 9.496 29.2334 9.48533 29.2548 9.464C29.2548 9.44267 29.2334 9.35733 29.1908 9.208H29.3188C29.3614 9.208 29.3828 9.208 29.3828 9.208L29.5748 8.952C29.6174 8.90933 29.7348 8.86667 29.9268 8.824L30.0548 8.472H30.1828C30.2041 8.49333 30.2254 8.51467 30.2468 8.536C30.2681 8.55733 30.2894 8.58933 30.3108 8.632C30.4601 8.568 30.5881 8.41867 30.6948 8.184L30.9828 7.96C30.9828 7.96 30.9934 7.96 31.0148 7.96C31.0574 7.96 31.1108 7.94933 31.1748 7.928L31.3348 7.96C31.3988 7.98133 31.4521 7.992 31.4948 7.992C31.5588 7.992 31.6654 7.91733 31.8148 7.768C31.9854 7.64 32.0814 7.576 32.1028 7.576L32.3908 7.736C32.3908 7.8 32.4014 7.85333 32.4227 7.896L32.9348 7.64C32.9988 7.64 33.1588 7.736 33.4148 7.928C33.4574 7.992 33.4574 8.14133 33.4148 8.376L33.5108 8.344L33.5428 8.216C33.5854 8.19467 33.6281 8.16267 33.6708 8.12C33.7134 8.07733 33.7668 8.03467 33.8308 7.992C33.8308 7.94933 33.8628 7.88533 33.9268 7.8C33.9481 7.82133 33.9694 7.84267 33.9908 7.864C34.0334 7.88533 34.0761 7.91733 34.1188 7.96C34.2041 8.04533 34.2681 8.088 34.3108 8.088C34.3534 8.04533 34.4174 8.01333 34.5028 7.992H34.5668C34.7588 7.992 34.9721 8.06667 35.2068 8.216L35.6228 8.536L35.6548 8.696C35.6121 8.696 35.5588 8.728 35.4948 8.792C35.5588 8.89867 35.6548 8.952 35.7828 8.952V9.08C35.8254 9.10133 35.9001 9.09067 36.0068 9.048C36.0494 9.176 36.1561 9.24 36.3268 9.24C36.3694 9.24 36.4228 9.29333 36.4868 9.4C36.4654 9.464 36.4654 9.53867 36.4868 9.624C36.7214 10.0507 36.8388 10.2427 36.8388 10.2V10.232C36.8388 10.296 36.7961 10.4133 36.7108 10.584C36.6041 10.84 36.5508 10.9787 36.5508 11C36.5508 11.0853 36.6788 11.1493 36.9348 11.192C37.1694 11.2347 37.2761 11.2773 37.2548 11.32L37.4148 11.544C37.3934 11.5653 37.3828 11.608 37.3828 11.672C37.3828 11.736 37.4041 11.832 37.4468 11.96C37.5321 12.152 37.5748 12.2907 37.5748 12.376C37.5321 12.4187 37.4788 12.472 37.4148 12.536C37.3508 12.5787 37.2761 12.632 37.1908 12.696C37.1481 12.7173 37.0734 12.7387 36.9668 12.76C36.8814 12.7813 36.7534 12.8027 36.5828 12.824L35.8788 12.92C35.8361 12.9413 35.7828 12.9627 35.7188 12.984C35.6548 13.0053 35.5908 13.0267 35.5268 13.048L35.1428 12.92C35.0148 12.9627 34.9188 13.08 34.8548 13.272C34.7694 13.4853 34.6841 13.592 34.5988 13.592C34.5774 13.592 34.5454 13.5387 34.5028 13.432C34.4388 13.3253 34.3961 13.272 34.3748 13.272C34.3534 13.272 34.3108 13.304 34.2468 13.368L34.0548 13.4L33.9908 13.176C33.9908 13.0907 34.0228 13.016 34.0868 12.952C34.1294 12.8667 34.1508 12.8133 34.1508 12.792L33.9908 12.6C34.0761 12.536 34.1508 12.408 34.2148 12.216C34.0868 12.216 33.9268 12.184 33.7348 12.12C33.7348 12.0773 33.7241 12.024 33.7028 11.96C33.6814 11.8747 33.6494 11.7893 33.6068 11.704L33.4788 11.352C33.3721 11.2027 33.1588 11.0853 32.8388 11L32.5508 11.032C32.5081 11.032 32.4548 11.0427 32.3908 11.064C32.3481 11.064 32.2841 11.0747 32.1988 11.096C32.1348 11.096 32.0494 11 31.9427 10.808C31.9001 10.808 31.8788 10.8507 31.8788 10.936L32.0388 11.256C31.8041 11.448 31.6121 11.5333 31.4628 11.512V11.992C31.4201 12.0347 31.3881 12.0773 31.3668 12.12C31.3668 12.1627 31.3668 12.216 31.3668 12.28C31.3881 12.344 31.4094 12.4187 31.4308 12.504C31.4734 12.696 31.4841 12.824 31.4628 12.888C31.4628 12.9093 31.4521 12.9307 31.4308 12.952C31.3881 12.9947 31.3668 13.048 31.3668 13.112C31.3668 13.1547 31.3988 13.208 31.4628 13.272C31.5054 13.3573 31.5268 13.4 31.5268 13.4C31.5268 13.4213 31.4521 13.5067 31.3028 13.656C31.1534 13.8053 31.0788 13.8907 31.0788 13.912C31.1001 14.3173 31.2601 14.52 31.5588 14.52H31.6548C31.7188 14.52 31.7828 14.52 31.8468 14.52C31.9108 14.4987 31.9748 14.488 32.0388 14.488C32.1241 14.488 32.2094 14.4987 32.2948 14.52C32.3801 14.52 32.4654 14.5307 32.5508 14.552V14.872C32.5508 15 32.6894 15.1813 32.9668 15.416C33.0094 15.416 33.0628 15.4267 33.1268 15.448C33.2121 15.448 33.2974 15.4587 33.3828 15.48L33.4788 15.672C33.5214 15.6933 33.5961 15.7573 33.7028 15.864L33.8308 16.12C33.8734 16.184 33.9161 16.216 33.9588 16.216C34.1294 16.1947 34.2361 16.1733 34.2788 16.152C34.3001 16.152 34.3001 16.152 34.2788 16.152C34.3428 16.7067 34.3854 16.984 34.4068 16.984L34.7588 16.568H34.8548L34.9828 16.92C35.0041 16.9413 35.0148 16.952 35.0148 16.952C35.0361 16.952 35.0468 16.952 35.0468 16.952L35.2388 16.888C35.3241 16.9093 35.3561 17.016 35.3348 17.208L35.6548 17.368C35.6761 17.368 35.7508 17.4533 35.8788 17.624C36.0708 17.624 36.2094 17.6987 36.2948 17.848C36.3161 17.8907 36.3374 17.944 36.3588 18.008C36.3801 18.0507 36.4121 18.1147 36.4548 18.2L36.7108 18.328C36.7108 18.3707 36.7108 18.424 36.7108 18.488C36.7108 18.552 36.7214 18.6373 36.7428 18.744C36.7428 18.8507 36.7641 18.9253 36.8068 18.968C36.8281 18.968 36.9028 18.8933 37.0308 18.744C37.1374 18.7653 37.2121 18.872 37.2548 19.064C37.2974 19.2347 37.3614 19.32 37.4468 19.32C37.4894 19.32 37.5214 19.3093 37.5428 19.288C37.5641 19.352 37.5748 19.4267 37.5748 19.512C37.5748 19.576 37.5748 19.6507 37.5748 19.736C37.5748 19.8 37.6174 19.864 37.7028 19.928C37.7881 19.9707 37.8628 19.9813 37.9268 19.96L38.0548 20.376C38.0974 20.4827 38.0654 20.5573 37.9588 20.6C38.0014 20.6427 38.0441 20.6533 38.0868 20.632L38.0548 20.792L38.2148 21.048L38.2468 21.304C38.3108 21.368 38.3534 21.4213 38.3748 21.464C38.4601 21.5707 38.5134 21.9227 38.5348 22.52C38.5134 22.584 38.5028 22.712 38.5028 22.904L38.3748 23.096C38.4174 23.1813 38.4494 23.3413 38.4708 23.576L38.3428 23.704C38.3428 23.832 38.2254 24.184 37.9908 24.76L37.8628 24.664C37.7988 24.6853 37.7668 24.7493 37.7668 24.856C37.7668 25.1333 37.7561 25.2827 37.7348 25.304L37.4148 25.496C37.4361 25.6453 37.4361 25.752 37.4148 25.816L36.9028 26.232L36.7748 26.424C36.6254 26.5307 36.4761 26.6373 36.3268 26.744C36.1988 26.8293 36.0601 26.8933 35.9108 26.936C35.8894 26.936 35.8468 26.9467 35.7828 26.968C35.7401 26.968 35.6761 26.9787 35.5908 27C35.5054 27.1067 35.3561 27.2347 35.1428 27.384L34.8228 27.288L34.6308 27.384C34.5881 27.4267 34.4601 27.448 34.2468 27.448H33.7348C33.6494 27.4693 33.5641 27.4907 33.4788 27.512C33.4148 27.5333 33.3294 27.5547 33.2228 27.576ZM30.0868 11.416C30.1081 11.3947 30.1828 11.3627 30.3108 11.32L30.5668 11.352L30.8228 11.416C30.9934 11.3733 31.0788 11.2773 31.0788 11.128L31.0468 11L30.5988 11.064C30.4921 11.064 30.3854 11.1067 30.2788 11.192C30.1294 11.0853 30.0228 11.032 29.9588 11.032C29.9801 11.0747 30.0014 11.128 30.0228 11.192C30.0441 11.256 30.0654 11.3307 30.0868 11.416ZM29.4788 11.352C29.5428 11.3947 29.5961 11.352 29.6388 11.224C29.5961 11.1813 29.5534 11.1813 29.5108 11.224C29.4681 11.2667 29.4574 11.3093 29.4788 11.352ZM35.9748 11.448L36.1028 11.32C36.1028 11.2987 36.0601 11.2987 35.9748 11.32V11.448ZM36.3908 11.608C36.4548 11.6293 36.5188 11.5973 36.5828 11.512C36.5614 11.4907 36.5294 11.48 36.4868 11.48C36.4228 11.48 36.3908 11.5227 36.3908 11.608ZM30.9508 11.96C30.9508 11.8747 30.9294 11.832 30.8868 11.832C30.8654 11.7893 30.8228 11.8 30.7588 11.864C30.7588 11.928 30.8228 11.96 30.9508 11.96ZM28.6788 12.888C28.7001 12.9093 28.7108 12.9307 28.7108 12.952C28.7321 12.9733 28.7534 12.9947 28.7747 13.016C28.7747 12.9947 28.7747 12.9627 28.7747 12.92V12.888H28.6788ZM33.0948 16.312C33.1374 16.312 33.1801 16.2907 33.2228 16.248C33.2654 16.2053 33.2441 16.1627 33.1588 16.12C33.1161 16.1627 33.0948 16.2267 33.0948 16.312ZM30.5988 16.312C30.5988 16.2693 30.5774 16.2267 30.5348 16.184C30.4921 16.1413 30.4494 16.1627 30.4068 16.248C30.4068 16.312 30.4708 16.3333 30.5988 16.312ZM35.1428 20.376C35.1854 20.376 35.2281 20.3547 35.2708 20.312C35.2708 20.248 35.2494 20.1947 35.2068 20.152C35.1428 20.1947 35.1214 20.2693 35.1428 20.376ZM36.4868 20.824C36.4868 20.7813 36.4654 20.7387 36.4228 20.696C36.3588 20.6533 36.3054 20.6747 36.2628 20.76C36.3054 20.824 36.3801 20.8453 36.4868 20.824ZM37.0308 22.04C37.0308 21.976 36.9988 21.9333 36.9348 21.912C36.8921 21.912 36.8494 21.9333 36.8068 21.976C36.8494 22.04 36.9241 22.0613 37.0308 22.04ZM35.2068 22.136C35.2281 22.1573 35.2281 22.168 35.2068 22.168C35.2281 22.1467 35.2388 22.136 35.2388 22.136H35.2068ZM30.3748 22.84L30.5028 22.744C30.5028 22.744 30.4814 22.7227 30.4388 22.68C30.4388 22.68 30.4281 22.7013 30.4068 22.744C30.3854 22.7867 30.3748 22.8187 30.3748 22.84ZM31.4948 26.456L31.6228 26.424C31.6441 26.4027 31.7188 26.392 31.8468 26.392L32.2308 25.944C32.1881 25.9013 32.1454 25.8373 32.1028 25.752C32.0601 25.6453 32.0174 25.528 31.9748 25.4V25.304C31.9748 25.1973 32.0068 25.112 32.0708 25.048L31.7508 25.08L31.9427 25.72C31.9427 25.8907 31.9214 25.9547 31.8788 25.912L31.8468 25.88C31.8468 25.88 31.8254 25.88 31.7828 25.88C31.7401 25.944 31.6228 26.072 31.4308 26.264C31.4734 26.3067 31.4948 26.3707 31.4948 26.456ZM33.0948 25.4C33.0948 25.3787 33.0628 25.336 32.9988 25.272C32.9988 25.272 32.9774 25.2933 32.9348 25.336C32.9348 25.336 32.9561 25.3467 32.9988 25.368C33.0414 25.3893 33.0734 25.4 33.0948 25.4ZM30.9828 25.816C30.9828 25.7733 30.9614 25.7307 30.9188 25.688C30.8974 25.6453 30.8548 25.656 30.7908 25.72C30.7908 25.784 30.8548 25.816 30.9828 25.816ZM33.1588 25.88C33.1801 25.8373 33.1694 25.7947 33.1268 25.752C33.1054 25.7093 33.0521 25.7307 32.9668 25.816C33.0094 25.88 33.0734 25.9013 33.1588 25.88ZM43.6893 27.48L43.1453 27.448C42.9746 27.4267 42.8359 27.416 42.7293 27.416C42.6439 27.416 42.5906 27.416 42.5693 27.416C42.2493 27.416 42.0573 27.4053 41.9933 27.384L41.4493 27.096C41.4066 27.0747 41.3533 27.0533 41.2893 27.032C41.2253 27.0107 41.1506 26.9893 41.0653 26.968C40.9373 26.904 40.8733 26.7973 40.8733 26.648C40.8306 26.6267 40.7879 26.616 40.7453 26.616C40.7026 26.5947 40.6599 26.584 40.6173 26.584C40.6173 26.392 40.5746 26.264 40.4893 26.2L40.2653 26.104C40.2226 26.0613 40.1693 25.944 40.1053 25.752L39.9773 25.432V25.336C39.9773 25.2933 39.9666 25.24 39.9453 25.176C39.9453 25.0907 39.9346 25.0053 39.9133 24.92C39.9133 24.7493 39.9133 24.6 39.9133 24.472C39.9346 24.344 39.9559 24.2373 39.9773 24.152C39.8919 24.1093 39.8279 24.0453 39.7853 23.96C39.7639 23.9173 39.7746 23.832 39.8173 23.704L39.8493 23.416C39.8706 23.3093 39.8813 23.2133 39.8813 23.128C39.8813 23.0427 39.8919 22.9573 39.9133 22.872C39.9133 22.7653 39.9453 22.6373 40.0093 22.488C40.0946 22.3387 40.1373 22.2427 40.1373 22.2C40.1373 22.1787 40.1159 22.1467 40.0733 22.104C40.0306 22.0613 40.0093 22.04 40.0093 22.04C40.0093 21.9973 39.9986 21.9653 39.9773 21.944C39.9773 21.9227 39.9773 21.9013 39.9773 21.88C39.9773 21.752 40.0093 21.624 40.0733 21.496C39.9879 21.3467 39.9453 21.1653 39.9453 20.952C39.9453 20.7813 39.9986 20.6213 40.1053 20.472C40.0413 20.3867 39.9879 20.3013 39.9453 20.216V19.384C39.9453 19.384 39.9239 19.3413 39.8813 19.256C39.8386 19.2133 39.8173 19.1707 39.8173 19.128C39.8173 19.064 39.9346 18.8293 40.1693 18.424C39.9986 18.3173 39.9133 18.2533 39.9133 18.232L40.0733 17.656C40.0733 17.6133 40.0626 17.5493 40.0413 17.464C40.0413 17.3787 40.0413 17.2827 40.0413 17.176L40.0093 16.664C39.9879 16.4293 39.9879 16.2373 40.0093 16.088C40.0306 15.9387 40.0306 15.8213 40.0093 15.736C39.9453 15.6293 39.8706 15.576 39.7853 15.576V15.416L40.0733 15.288C40.0733 15.2453 40.0626 15.2133 40.0413 15.192H39.4973V15.288C39.4973 15.3733 39.5399 15.448 39.6253 15.512C39.7106 15.576 39.7533 15.6293 39.7533 15.672L39.3693 15.64C39.2839 15.6187 39.2093 15.608 39.1453 15.608C39.1026 15.608 39.0706 15.608 39.0493 15.608L38.8573 15.672C38.7293 15.7147 38.6653 15.736 38.6653 15.736C38.5799 15.736 38.4519 15.6933 38.2812 15.608C38.2599 15.5653 38.2599 15.5013 38.2812 15.416L38.3453 15.224C38.3239 15.16 38.3133 15.096 38.3133 15.032C38.3133 14.968 38.3133 14.9147 38.3133 14.872C38.3559 14.744 38.4306 14.6693 38.5373 14.648C38.4519 14.5627 38.3986 14.4773 38.3773 14.392C38.3773 14.2853 38.3773 14.1787 38.3773 14.072L38.3453 13.912C38.3879 13.72 38.3986 13.6027 38.3773 13.56L38.2812 13.4C38.2386 13.3147 38.2172 13.2613 38.2172 13.24L38.3453 12.952C38.3666 12.9307 38.3986 12.92 38.4413 12.92C38.4839 12.92 38.5373 12.9093 38.6013 12.888C38.6653 12.8667 38.7079 12.824 38.7293 12.76H38.7933L39.1133 12.856L39.5293 12.984C39.5506 13.0053 39.5719 13.0373 39.5933 13.08C39.6146 13.1227 39.6359 13.176 39.6573 13.24C39.7426 13.176 39.8279 13.0907 39.9133 12.984C39.9986 12.8773 40.0839 12.7493 40.1693 12.6C40.2973 12.5147 40.3079 12.4507 40.2013 12.408C40.1373 12.3653 40.1053 12.3013 40.1053 12.216L40.1373 11.192C40.0306 10.808 39.9773 10.5413 39.9773 10.392L40.0733 10.136L40.1373 9.88C40.1373 9.816 40.1053 9.76267 40.0413 9.72C39.9773 9.67733 39.9453 9.592 39.9453 9.464L40.0093 9.144C40.0519 9.12267 40.0946 9.09067 40.1373 9.048C40.1799 9.00533 40.2439 8.952 40.3293 8.888C40.4573 8.76 40.5319 8.696 40.5533 8.696L40.8413 8.824C40.9266 8.84533 40.9906 8.87733 41.0333 8.92C41.0759 8.96267 41.1079 8.984 41.1293 8.984L41.2253 8.952H41.9293C42.0786 8.952 42.1959 8.96267 42.2812 8.984C42.3879 8.984 42.4733 8.984 42.5373 8.984L42.7613 8.92C42.8893 8.87733 42.9533 8.856 42.9533 8.856C43.1026 8.856 43.1773 8.96267 43.1773 9.176C43.1773 9.24 43.1666 9.32533 43.1453 9.432C43.1453 9.51733 43.1346 9.624 43.1133 9.752L42.9852 9.72C42.8999 9.72 42.7933 9.76267 42.6653 9.848C42.4733 9.95467 42.3986 10.0933 42.4413 10.264C42.4839 10.3067 42.5052 10.328 42.5052 10.328C42.5266 10.328 42.5693 10.296 42.6333 10.232C42.7186 10.1893 42.7719 10.168 42.7933 10.168C42.8999 10.168 43.0066 10.2533 43.1133 10.424C43.1986 10.5733 43.2413 10.6693 43.2413 10.712C43.2413 10.7547 43.2199 10.808 43.1773 10.872C43.1559 10.9147 43.1346 10.9467 43.1133 10.968C43.0919 11.3307 43.0706 11.5867 43.0493 11.736C43.0493 11.8853 43.0493 11.9173 43.0493 11.832C42.8999 11.8533 42.8253 11.9173 42.8253 12.024C42.8253 12.1307 42.8893 12.2053 43.0173 12.248V12.44C43.0173 12.568 43.0706 12.792 43.1773 13.112C43.1986 13.1547 43.2733 13.2187 43.4013 13.304H43.4973V13.08C43.5186 12.9947 43.5826 12.952 43.6893 12.952C44.1159 12.888 44.2973 12.856 44.2333 12.856L44.3933 12.888C44.4573 12.9093 44.5213 12.92 44.5853 12.92L44.9053 13.144C44.8839 13.2293 44.8733 13.3147 44.8733 13.4C44.8733 13.464 44.8733 13.5493 44.8733 13.656C45.0439 13.8267 45.1293 13.9013 45.1293 13.88C45.1293 13.944 45.0866 14.0187 45.0013 14.104C45.0226 14.1253 45.0439 14.1467 45.0653 14.168C45.0226 14.1893 44.9906 14.2747 44.9693 14.424L45.0013 14.52C45.0226 14.5627 45.0333 14.6053 45.0333 14.648C45.0333 14.8187 45.0226 14.9893 45.0013 15.16C45.0013 15.3093 44.9906 15.448 44.9693 15.576C44.9266 15.704 44.8626 15.768 44.7773 15.768H44.7453H44.7773C44.7773 15.7467 44.6813 15.704 44.4893 15.64C44.4039 15.6187 44.2333 15.608 43.9773 15.608C43.8706 15.608 43.6573 15.64 43.3373 15.704L43.2093 15.8C43.1239 15.8427 43.0813 15.864 43.0813 15.864L43.0493 16.152C43.0279 16.3653 42.9959 16.472 42.9533 16.472C43.0813 16.7707 43.1453 17.048 43.1453 17.304C43.1239 17.304 43.0706 17.432 42.9852 17.688C43.0066 17.6453 43.0173 17.7627 43.0173 18.04L42.9533 18.2C42.9106 18.328 42.8893 18.392 42.8893 18.392L42.9852 18.776C43.0279 18.8827 43.0493 18.9787 43.0493 19.064C43.0493 19.128 43.0493 19.1707 43.0493 19.192C43.0493 19.192 43.0066 19.2453 42.9213 19.352C42.8999 19.352 42.8893 19.4053 42.8893 19.512C42.8893 19.64 42.9426 19.7253 43.0493 19.768V20.824C43.0493 20.8453 43.0279 20.8773 42.9852 20.92C42.9426 21.0053 42.9213 21.0587 42.9213 21.08C42.8999 21.2293 42.8999 21.3573 42.9213 21.464C42.9639 21.6347 42.9959 21.7093 43.0173 21.688C42.9533 21.752 42.8999 21.816 42.8573 21.88C42.8999 21.9227 42.9533 22.072 43.0173 22.328C42.7613 22.4773 42.6333 22.6053 42.6333 22.712C42.6333 22.6693 42.7186 22.7973 42.8893 23.096C42.8893 23.096 42.9106 23.2667 42.9533 23.608L43.0173 23.704C43.0173 23.7893 43.0173 23.8853 43.0173 23.992C43.0173 24.0773 43.0279 24.184 43.0493 24.312C43.0493 24.312 43.1773 24.3973 43.4333 24.568C43.4333 24.6533 43.4866 24.728 43.5933 24.792H43.6573C43.6999 24.792 43.7746 24.7493 43.8813 24.664C43.9666 24.5787 44.0413 24.536 44.1053 24.536C44.1053 24.536 44.1479 24.5573 44.2333 24.6C44.2759 24.6427 44.3079 24.664 44.3293 24.664C44.3719 24.664 44.4359 24.6427 44.5213 24.6C44.5639 24.5573 44.6066 24.5253 44.6493 24.504C44.6919 24.4613 44.7453 24.4187 44.8093 24.376L44.9373 24.472V25.816C44.9373 25.8373 44.9266 25.8587 44.9053 25.88C44.8626 25.9227 44.8413 25.9547 44.8413 25.976V26.296C44.7986 26.3387 44.7559 26.3707 44.7133 26.392C44.7346 26.5413 44.7773 26.6587 44.8413 26.744C44.9053 26.808 44.9373 26.904 44.9373 27.032C44.9373 27.2453 44.8199 27.352 44.5853 27.352H44.4893C44.4679 27.352 44.4466 27.3413 44.4253 27.32C44.4253 27.32 44.4146 27.32 44.3933 27.32L44.0413 27.416C43.9346 27.4373 43.8493 27.448 43.7853 27.448C43.7426 27.4693 43.7106 27.48 43.6893 27.48ZM41.0973 13.88C41.2253 13.88 41.2893 13.816 41.2893 13.688L41.2253 13.496H41.0653C41.0013 13.56 40.9479 13.6133 40.9053 13.656C40.8839 13.6987 40.8626 13.7307 40.8413 13.752C40.8626 13.7733 40.8733 13.8053 40.8733 13.848H41.0013C41.0226 13.848 41.0333 13.8587 41.0333 13.88C41.0546 13.88 41.0759 13.88 41.0973 13.88ZM44.2333 13.816L44.3613 13.752L44.2013 13.656C44.1799 13.6773 44.1586 13.688 44.1373 13.688L44.2333 13.816ZM45.0653 14.168V14.232C45.0653 14.2107 45.0653 14.1893 45.0653 14.168ZM41.7373 14.616C41.7586 14.5947 41.7373 14.552 41.6733 14.488L41.5773 14.552C41.5986 14.5733 41.6199 14.584 41.6413 14.584C41.6839 14.584 41.7159 14.5947 41.7373 14.616ZM41.7693 15.128C41.7906 15.0853 41.7799 15.0427 41.7373 15C41.6946 14.9573 41.6413 14.9573 41.5773 15C41.5986 15.0427 41.6626 15.0853 41.7693 15.128ZM43.1453 17.304V17.336V17.304ZM42.2173 20.568L42.2812 20.536C42.3026 20.5147 42.3239 20.504 42.3453 20.504L42.2812 20.408C42.2599 20.4293 42.2493 20.4507 42.2493 20.472C42.2493 20.4933 42.2386 20.5253 42.2173 20.568ZM40.9693 21.592C41.0119 21.6133 41.0546 21.6027 41.0973 21.56C41.1399 21.5173 41.1293 21.464 41.0653 21.4C41.0013 21.4213 40.9693 21.4853 40.9693 21.592ZM40.7133 25.624L40.8733 25.784C40.9159 25.784 40.9906 25.7733 41.0973 25.752L41.2573 25.56L41.0333 25.368C41.0119 25.3893 40.9053 25.432 40.7133 25.496V25.624ZM39.8813 26.52C39.8386 26.52 39.7853 26.488 39.7213 26.424C39.7426 26.4027 39.7746 26.392 39.8173 26.392C39.8813 26.392 39.9026 26.4347 39.8813 26.52ZM49.5663 27.672C49.5449 27.6293 49.5129 27.5867 49.4703 27.544C49.4276 27.5227 49.3849 27.4907 49.3423 27.448C49.2143 27.3627 49.0756 27.2987 48.9263 27.256C48.9049 27.2773 48.8409 27.3093 48.7343 27.352L48.5103 27.256C48.3823 27.192 48.2969 27.16 48.2543 27.16L47.9663 27.224C47.9023 27.224 47.7529 27.128 47.5182 26.936C47.4116 26.8293 47.3156 26.7333 47.2303 26.648C47.1663 26.5627 47.1236 26.488 47.1023 26.424C47.1023 26.4027 47.0809 26.392 47.0383 26.392L46.9103 26.424C46.8676 26.424 46.8249 26.392 46.7823 26.328C46.7609 26.2853 46.7396 26.232 46.7183 26.168C46.6969 26.0827 46.6649 25.9973 46.6223 25.912C46.6009 25.8693 46.5049 25.7947 46.3343 25.688C46.3129 25.688 46.2809 25.624 46.2383 25.496C46.1529 25.4747 46.1103 25.432 46.1103 25.368L46.2063 25.208C46.2489 25.144 46.2703 25.0693 46.2703 24.984C46.2703 24.8773 46.2276 24.7813 46.1423 24.696C46.0356 24.5467 45.9823 24.4293 45.9823 24.344C46.0249 24.3013 46.0569 24.248 46.0783 24.184C46.0996 24.0987 46.1316 24.0133 46.1743 23.928C46.1743 23.928 46.1316 23.8533 46.0463 23.704C45.8969 23.4693 45.8329 23.2773 45.8543 23.128C45.8543 23.1067 45.9396 23.0107 46.1103 22.84L45.9183 22.68C45.9183 22.6587 45.9076 22.6373 45.8863 22.616V22.296C45.8863 22.2533 45.8863 22.2107 45.8863 22.168C45.8863 22.1253 45.8969 22.072 45.9183 22.008L46.0783 21.816C46.0356 21.688 46.0356 21.5707 46.0783 21.464C46.0996 21.4427 46.1209 21.4213 46.1423 21.4C46.1636 21.3787 46.1849 21.3573 46.2063 21.336C46.1849 21.3147 46.1316 21.304 46.0463 21.304L45.9823 20.792V20.696C45.9823 20.44 46.0463 20.3333 46.1743 20.376L46.3983 20.408L46.4622 20.376C46.4409 20.2907 46.3556 20.2267 46.2063 20.184C46.0996 20.1413 46.0463 20.0987 46.0463 20.056L46.1743 19.256C46.2169 19.256 46.2489 19.2133 46.2703 19.128L46.2063 18.904C46.1636 18.712 46.1316 18.6053 46.1103 18.584C46.1529 18.5413 46.2063 18.4987 46.2703 18.456C46.3343 18.4133 46.3876 18.3493 46.4303 18.264C46.4303 18.2427 46.3663 18.1253 46.2383 17.912C46.1743 17.8053 46.1423 17.6773 46.1423 17.528C46.1849 17.4853 46.2169 17.4213 46.2383 17.336C46.2809 17.2507 46.3236 17.1547 46.3663 17.048C46.3663 16.8987 46.3663 16.7387 46.3663 16.568C46.3876 16.376 46.4089 16.1627 46.4303 15.928C46.4943 15.864 46.5369 15.8 46.5583 15.736C46.6223 15.352 46.6436 15.0853 46.6223 14.936C46.7076 14.9573 46.7823 14.936 46.8463 14.872L46.8783 14.616C47.0063 14.5733 47.0703 14.4987 47.0703 14.392C47.1129 14.2 47.1343 14.104 47.1343 14.104C47.4756 13.6987 47.6889 13.496 47.7743 13.496H47.8063V13.528H47.8703C47.9129 13.528 47.9449 13.4853 47.9663 13.4L48.3183 13.272C48.6596 13.5493 48.8303 13.6347 48.8303 13.528V13.336C48.8303 13.2933 48.8196 13.2507 48.7983 13.208C48.7983 13.1653 48.7983 13.1333 48.7983 13.112V12.984C49.0543 12.792 49.2036 12.696 49.2463 12.696L49.4383 12.76L49.7903 12.696C49.9609 12.9307 50.0889 13.048 50.1743 13.048C50.2383 13.048 50.3129 13.0053 50.3983 12.92C50.5049 12.792 50.5689 12.728 50.5903 12.728L50.8463 12.536C50.8463 12.6213 50.8889 12.7067 50.9743 12.792L51.1983 12.632C51.2196 12.7173 51.3049 12.8133 51.4543 12.92L51.5823 12.888H51.7103L51.8383 12.792C51.8809 12.8133 51.9449 12.8347 52.0303 12.856C52.1156 12.8773 52.2009 12.8987 52.2863 12.92C52.3503 13.1333 52.5316 13.2613 52.8303 13.304L52.8943 13.432C52.9156 13.4107 52.9796 13.4 53.0863 13.4C53.1503 13.4 53.1823 13.4213 53.1823 13.464L53.4383 14.008C53.4809 13.9653 53.5236 13.944 53.5663 13.944C53.6729 13.944 53.7369 14.008 53.7583 14.136L53.8542 14.552L54.0783 14.68C54.1209 14.7227 54.1529 14.872 54.1743 15.128C54.1956 15.1707 54.2169 15.224 54.2383 15.288C54.2596 15.3307 54.2809 15.3947 54.3023 15.48C54.2809 15.544 54.2703 15.704 54.2703 15.96L54.4303 16.152C54.5369 16.2373 54.5796 16.3333 54.5583 16.44L54.5263 16.632C54.5049 16.6533 54.4623 16.6747 54.3983 16.696C54.3556 16.7173 54.3129 16.7493 54.2703 16.792C54.2063 16.856 54.1316 16.8773 54.0463 16.856C54.0249 16.8773 54.0143 16.92 54.0143 16.984C54.1423 17.112 54.2703 17.1973 54.3983 17.24L54.3343 17.528C54.3343 17.528 54.2916 17.5493 54.2063 17.592C54.1423 17.656 54.0889 17.688 54.0463 17.688C53.9396 17.7947 53.8863 17.8907 53.8863 17.976C53.8863 18.104 54.0249 18.2107 54.3023 18.296L54.3663 18.52C54.3449 18.5413 54.3129 18.6267 54.2703 18.776V18.904C54.2703 18.968 54.2703 19.0427 54.2703 19.128C54.2703 19.192 54.2809 19.2773 54.3023 19.384L54.0463 19.512C54.0676 19.5333 54.0889 19.576 54.1103 19.64C54.1316 19.704 54.1636 19.7787 54.2063 19.864C54.2916 19.9707 54.3343 20.0453 54.3343 20.088L54.2703 20.568C54.2276 20.5253 54.1636 20.504 54.0783 20.504H53.9823L53.9183 20.632C53.9183 20.632 53.9716 20.7067 54.0783 20.856C54.1849 21.0053 54.2383 21.0907 54.2383 21.112C54.2383 21.2187 54.1956 21.2827 54.1103 21.304C54.0036 21.3467 53.9503 21.4107 53.9503 21.496C53.9503 21.4747 53.9823 21.5387 54.0463 21.688C54.0889 21.7093 54.0889 21.7733 54.0463 21.88C54.0463 21.88 54.0249 21.9013 53.9823 21.944C54.0249 22.2213 54.0569 22.456 54.0783 22.648C54.0996 22.8187 54.1103 22.9253 54.1103 22.968C54.0889 23.032 54.0676 23.1173 54.0463 23.224C54.0249 23.3093 53.9929 23.4053 53.9503 23.512L54.0143 23.768L53.9823 24.824L53.5983 25.464L53.4703 25.944C53.4276 25.9867 53.3849 26.008 53.3423 26.008C53.3209 25.9867 53.2889 25.976 53.2463 25.976C53.2036 25.976 53.1289 26.0187 53.0223 26.104V26.424C52.5316 26.8933 52.2543 27.1173 52.1903 27.096L52.0623 27.064C52.0836 27.064 51.8063 27.16 51.2303 27.352C51.2089 27.3733 51.1876 27.3947 51.1663 27.416C51.1449 27.4587 51.1129 27.512 51.0703 27.576H50.9743L50.7503 27.512C50.6863 27.512 50.4729 27.5547 50.1102 27.64L49.8223 27.544C49.8223 27.544 49.7369 27.5867 49.5663 27.672ZM48.2543 14.584C48.2756 14.584 48.2543 14.5413 48.1903 14.456L48.0943 14.52C48.1156 14.5413 48.1369 14.552 48.1583 14.552C48.2009 14.552 48.2329 14.5627 48.2543 14.584ZM52.0303 14.84L52.1583 14.744C52.1369 14.6587 52.0836 14.6267 51.9983 14.648L52.0303 14.84ZM48.2543 15.096C48.2756 15.0533 48.2649 15.0107 48.2223 14.968C48.1796 14.9253 48.1369 14.9253 48.0943 14.968C48.0943 15.0107 48.1476 15.0533 48.2543 15.096ZM49.9183 24.792C49.9396 24.7707 50.0569 24.7067 50.2703 24.6C50.4409 24.536 50.5156 24.504 50.4943 24.504H50.4623C50.4836 24.504 50.4943 24.504 50.4943 24.504L50.6863 24.568C50.7289 24.568 50.7823 24.5253 50.8463 24.44C50.7396 24.2907 50.6863 24.1733 50.6863 24.088L50.7503 23.8C50.7929 23.7573 50.8249 23.736 50.8463 23.736L50.9103 23.8C50.8889 23.864 50.8889 23.9387 50.9103 24.024L51.0383 23.928V23.736L50.8143 23.288C50.8996 23.2453 50.9849 23.1813 51.0703 23.096C50.9636 22.84 50.9209 22.6373 50.9423 22.488L50.9743 22.264C50.9956 22.1787 51.0063 22.1147 51.0063 22.072C51.0063 22.008 51.0063 21.9653 51.0063 21.944C51.0489 21.9013 51.1129 21.8693 51.1983 21.848C51.3689 21.8053 51.4543 21.688 51.4543 21.496C51.4543 21.4533 51.4223 21.432 51.3583 21.432C51.3156 21.432 51.2623 21.3893 51.1983 21.304C51.1769 21.2827 51.1343 21.272 51.0703 21.272C50.9636 21.1013 50.9103 20.9733 50.9103 20.888C50.9529 20.5893 50.9849 20.4613 51.0063 20.504C51.0703 20.504 51.1023 20.3333 51.1023 19.992C51.1449 19.672 51.1449 19.4587 51.1023 19.352C51.0596 19.1813 51.0276 19.096 51.0063 19.096V19.128C51.0063 19.1067 51.0063 19.096 51.0063 19.096C51.0276 19.0107 51.0489 18.904 51.0703 18.776C51.0916 18.6267 51.1129 18.4667 51.1343 18.296C51.1556 18.2747 51.1769 18.2533 51.1983 18.232C51.2409 18.2107 51.2729 18.1893 51.2943 18.168C51.3583 18.104 51.3903 18.0507 51.3903 18.008L51.2943 17.88C51.2089 17.7947 51.1663 17.6667 51.1663 17.496C51.2303 17.432 51.2729 17.3573 51.2943 17.272L51.3263 16.824C51.3689 16.7813 51.4009 16.7173 51.4223 16.632C51.4223 16.6107 51.4223 16.5787 51.4223 16.536C51.4223 16.4933 51.4009 16.4507 51.3583 16.408L51.2623 16.248C51.2836 15.928 51.3049 15.7787 51.3263 15.8L51.1983 15.768C51.1556 15.7467 51.1129 15.736 51.0703 15.736C51.0489 15.736 51.0383 15.7253 51.0383 15.704C50.9529 15.5973 50.8889 15.5653 50.8463 15.608L50.6223 15.672C50.5156 15.672 50.3983 15.5867 50.2703 15.416H50.1423L50.0783 15.64C50.0356 15.768 49.9716 15.8213 49.8863 15.8L49.6302 15.864C49.7583 15.8853 49.8223 15.9493 49.8223 16.056L49.6302 16.696C49.6516 16.6747 49.6729 16.7707 49.6943 16.984V17.08C49.6943 17.2933 49.6516 17.5707 49.5663 17.912C49.5023 17.976 49.4596 18.04 49.4383 18.104V18.392C49.4383 18.456 49.4383 18.52 49.4383 18.584C49.4596 18.648 49.4596 18.7227 49.4383 18.808C49.4383 18.8507 49.4276 18.8933 49.4062 18.936C49.4062 18.9787 49.4062 19.0213 49.4062 19.064C49.4062 19.192 49.4383 19.288 49.5023 19.352C49.5663 19.5867 49.5876 19.832 49.5663 20.088C49.5236 20.1307 49.4809 20.1947 49.4383 20.28C49.3956 20.344 49.3529 20.4187 49.3103 20.504L49.4703 20.888C49.4703 20.9307 49.4596 20.9627 49.4383 20.984C49.3103 20.984 49.2249 20.9947 49.1823 21.016C49.3103 21.2293 49.3743 21.3573 49.3743 21.4L49.2783 21.816C49.2569 21.8373 49.2356 21.8587 49.2143 21.88C49.1929 21.9013 49.1716 21.9333 49.1503 21.976V22.008L49.2463 22.392C49.2463 22.5413 49.1396 22.584 48.9263 22.52V22.648C49.0329 22.6907 49.1503 22.7867 49.2783 22.936C49.2569 23.0853 49.2463 23.2667 49.2463 23.48C49.2463 23.672 49.2463 23.8853 49.2463 24.12C49.2889 24.184 49.3636 24.3227 49.4703 24.536C49.5129 24.536 49.5983 24.5573 49.7263 24.6C49.7049 24.664 49.7049 24.728 49.7263 24.792H49.9183ZM47.8703 18.136L48.1263 18.04C48.1903 17.9333 48.2223 17.816 48.2223 17.688C48.2649 17.6453 48.2436 17.592 48.1583 17.528L47.9663 17.688H47.9023C47.8383 17.56 47.7636 17.496 47.6783 17.496C47.5929 17.496 47.5503 17.56 47.5503 17.688C47.5503 17.816 47.5716 17.9013 47.6143 17.944L47.8703 18.136ZM52.5103 20.44L52.6063 20.376C52.6063 20.3333 52.5956 20.3013 52.5743 20.28L52.5103 20.44ZM47.4223 21.912L47.3903 21.56C47.3476 21.6027 47.3049 21.6773 47.2623 21.784C47.2623 21.8267 47.3156 21.8693 47.4223 21.912ZM52.7343 24.536C52.8196 24.5787 52.8729 24.568 52.8943 24.504C52.8729 24.4827 52.8516 24.4613 52.8303 24.44C52.8303 24.4187 52.8089 24.3973 52.7663 24.376L52.7343 24.536ZM53.4703 24.92C53.5343 24.8347 53.5449 24.7707 53.5023 24.728L53.2783 24.76C53.2996 24.7813 53.2996 24.8347 53.2783 24.92H53.4703ZM47.5823 26.52C47.6463 26.52 47.7103 26.488 47.7743 26.424V26.2L47.5823 26.104C47.4756 26.104 47.4223 26.1787 47.4223 26.328C47.4009 26.456 47.4543 26.52 47.5823 26.52ZM55.8655 27.128C55.7802 27.0427 55.7375 26.9893 55.7375 26.968C55.7375 26.8827 55.8655 26.68 56.1215 26.36V26.232C56.1215 26.1467 56.1108 26.072 56.0895 26.008C56.0895 25.9227 56.0788 25.8373 56.0575 25.752L56.3775 25.112C56.4415 24.9627 56.4522 24.8667 56.4095 24.824L56.0255 24.76L56.0895 24.536C56.1322 24.4933 56.1322 24.408 56.0895 24.28C55.9402 24.152 55.8655 24.056 55.8655 23.992C55.8655 23.7147 55.9615 23.4693 56.1535 23.256H56.1855C56.1855 23.256 56.1322 23.2133 56.0255 23.128C55.9402 23.0427 55.8868 23 55.8655 23L55.9295 22.552C55.9295 22.5307 55.9508 22.4987 55.9935 22.456C56.0362 22.4133 56.0575 22.3813 56.0575 22.36L55.9615 22.104C55.8975 21.9333 55.8655 21.8373 55.8655 21.816L55.9615 21.688V21.208L56.0575 20.824C56.0788 20.7813 56.0788 20.7387 56.0575 20.696C56.0575 20.6533 56.0575 20.6 56.0575 20.536L56.0255 20.216C56.0255 20.1947 56.0575 20.152 56.1215 20.088C56.1855 20.024 56.2175 19.9813 56.2175 19.96C56.2175 19.96 56.1642 19.8853 56.0575 19.736L56.0895 19.64C56.0895 19.6187 56.0895 19.5867 56.0895 19.544C56.0895 19.5013 56.0788 19.4373 56.0575 19.352C56.0575 19.352 56.0468 19.352 56.0255 19.352C56.0255 19.3307 56.0255 19.3093 56.0255 19.288C56.0255 19.1813 56.0362 19.096 56.0575 19.032C56.1002 18.968 56.1215 18.9253 56.1215 18.904L56.0575 18.744C56.0148 18.6587 55.9935 18.616 55.9935 18.616L56.0895 18.424C56.1535 18.3173 56.1855 18.2427 56.1855 18.2L56.0895 17.72C56.0682 17.5707 56.0362 17.464 55.9935 17.4C55.9722 17.336 55.9615 17.2933 55.9615 17.272C55.9615 17.208 56.0148 17.144 56.1215 17.08L56.2815 16.984C56.3668 16.8133 56.4095 16.6853 56.4095 16.6C56.4095 16.3227 56.3775 16.152 56.3135 16.088C56.1855 15.9173 56.1215 15.832 56.1215 15.832L56.0895 15.608V15.192C56.4522 15.1493 56.6335 15.0213 56.6335 14.808C56.6335 14.68 56.5802 14.616 56.4735 14.616C56.4308 14.616 56.3668 14.6373 56.2815 14.68L56.2175 14.52C56.1962 14.4773 56.1748 14.4453 56.1535 14.424C56.1322 14.3813 56.1215 14.3493 56.1215 14.328C56.1215 14.2213 56.1108 14.0827 56.0895 13.912C56.0895 13.72 56.0788 13.5067 56.0575 13.272C56.0575 13.2507 56.0362 13.2187 55.9935 13.176C55.9508 13.1333 55.9295 13.0907 55.9295 13.048C55.9295 12.856 55.9935 12.76 56.1215 12.76L56.5055 12.824C56.6122 12.8453 56.6868 12.8667 56.7295 12.888C56.7935 12.9093 56.8362 12.92 56.8575 12.92L56.9855 12.888H57.1455L57.3055 12.92C57.3482 12.92 57.3695 12.9307 57.3695 12.952C57.3908 12.952 57.4122 12.952 57.4335 12.952L57.5935 12.888C57.6362 12.8667 57.6788 12.856 57.7215 12.856L58.0735 12.888C58.1802 12.9093 58.2548 12.92 58.2975 12.92C58.3402 12.92 58.3722 12.92 58.3935 12.92L58.6495 12.856C58.7348 12.8347 58.7882 12.824 58.8095 12.824C58.8522 12.824 58.8842 12.824 58.9055 12.824C59.0548 12.824 59.1508 12.9733 59.1935 13.272C59.2362 13.592 59.3748 13.752 59.6095 13.752C59.7588 13.752 59.8655 13.7093 59.9295 13.624C59.9508 13.5813 59.9722 13.5387 59.9935 13.496C60.0148 13.4533 60.0468 13.4 60.0895 13.336H60.3135C60.5268 13.0587 60.7188 12.92 60.8895 12.92L61.0815 13.016C61.0815 13.016 61.1028 12.9947 61.1455 12.952C61.4655 12.8027 61.6788 12.728 61.7855 12.728C61.8495 12.728 61.9242 12.7387 62.0095 12.76C62.0948 12.76 62.1802 12.7707 62.2655 12.792C62.3508 12.8773 62.3935 12.9733 62.3935 13.08C62.3935 13.08 62.3402 13.1547 62.2335 13.304C62.2548 13.3893 62.2655 13.496 62.2655 13.624C62.2868 13.752 62.2868 13.9013 62.2655 14.072C62.2015 14.2 62.1482 14.264 62.1055 14.264C62.1055 14.264 62.1162 14.2747 62.1375 14.296C62.1588 14.3173 62.1802 14.3707 62.2015 14.456L62.2975 14.68C62.2975 14.7653 62.2655 14.8293 62.2015 14.872C62.1375 14.8933 62.1055 14.936 62.1055 15C62.1055 15.0213 62.1162 15.0533 62.1375 15.096C62.1588 15.1173 62.1802 15.1493 62.2015 15.192L62.2655 15.352C62.2655 15.352 62.2548 15.3733 62.2335 15.416C62.2122 15.4373 62.1802 15.4693 62.1375 15.512C62.2655 15.5973 62.3295 15.768 62.3295 16.024C62.3295 16.1947 62.2442 16.28 62.0735 16.28C62.0735 16.28 61.8922 16.2373 61.5295 16.152C61.1882 16.0667 60.9322 16.024 60.7615 16.024C60.8255 16.024 60.6442 16.0987 60.2175 16.248H60.1535C60.0042 16.248 59.8442 16.2907 59.6735 16.376C59.6522 16.44 59.6202 16.5147 59.5775 16.6C59.5348 16.6853 59.4922 16.7813 59.4495 16.888C59.4068 16.9093 59.3535 16.9307 59.2895 16.952C59.2468 16.9733 59.1935 17.0053 59.1295 17.048C59.1295 17.048 59.1082 17.144 59.0655 17.336C58.8522 17.4213 58.7455 17.5173 58.7455 17.624C58.7455 17.7093 58.8202 17.7627 58.9695 17.784C59.0122 17.7627 59.0548 17.8053 59.0975 17.912L59.0335 18.264C59.1402 18.584 59.2042 18.744 59.2255 18.744C59.2255 18.744 59.2148 18.7653 59.1935 18.808C59.1722 18.8507 59.1402 18.8827 59.0975 18.904C58.9695 18.9467 58.9055 18.968 58.9055 18.968C58.9055 18.9893 58.9055 19.0427 58.9055 19.128C58.9268 19.192 58.9482 19.288 58.9695 19.416C58.9482 19.4587 58.9375 19.5333 58.9375 19.64C58.9375 19.7253 58.9375 19.8213 58.9375 19.928C58.8948 19.9707 58.8735 20.0027 58.8735 20.024C58.8735 20.0453 58.9375 20.0773 59.0655 20.12C59.1722 20.184 59.2255 20.2267 59.2255 20.248C59.2255 20.2693 59.2148 20.28 59.1935 20.28L58.9375 20.536C58.9162 20.6 58.9055 20.696 58.9055 20.824C58.9055 20.9947 58.9695 21.144 59.0975 21.272L58.9695 21.56V21.624C58.9695 21.6453 58.9695 21.6773 58.9695 21.72C58.9695 21.7627 58.9802 21.816 59.0015 21.88L58.8095 22.104C58.8735 22.168 58.9375 22.264 59.0015 22.392C59.0228 22.4347 59.0335 22.4987 59.0335 22.584C59.0548 22.648 59.0655 22.7333 59.0655 22.84C59.0655 22.7547 59.0335 22.808 58.9695 23C58.9482 23.064 58.9375 23.2133 58.9375 23.448C58.9375 23.4693 58.9695 23.512 59.0335 23.576C59.0548 23.6187 59.0655 23.6507 59.0655 23.672C59.0868 23.6933 59.0975 23.7147 59.0975 23.736C59.0762 23.736 59.0335 23.8427 58.9695 24.056C58.9695 24.12 58.9802 24.1627 59.0015 24.184V24.216C59.0015 24.3013 58.9695 24.44 58.9055 24.632L58.9375 24.856V24.92C58.9375 24.9413 58.9268 24.9733 58.9055 25.016C58.9055 25.0587 58.8948 25.112 58.8735 25.176C58.8735 25.1973 58.8095 25.2293 58.6815 25.272C58.6815 25.336 58.7135 25.4853 58.7775 25.72C58.8415 25.8907 58.8308 26.04 58.7455 26.168V26.264C58.7882 26.2853 58.9055 26.296 59.0975 26.296L59.1295 26.392C59.1295 26.4773 59.0868 26.5947 59.0015 26.744C58.9162 26.936 58.8415 27.032 58.7775 27.032L58.6495 27C58.6068 26.9787 58.5535 26.968 58.4895 26.968L58.3615 27.032C58.2975 27.0533 58.2335 27.064 58.1695 27.064L57.1455 26.936L57.0495 26.968C57.0282 26.968 57.0068 26.9787 56.9855 27C56.9855 27 56.9748 27 56.9535 27C56.9322 27 56.9108 26.9893 56.8895 26.968C56.8682 26.9467 56.8362 26.936 56.7935 26.936L56.6335 26.904C56.5695 26.904 56.5268 26.9147 56.5055 26.936L56.3775 27C56.3348 27.0213 56.1642 27.064 55.8655 27.128ZM56.8575 13.656C56.8575 13.592 56.8362 13.5387 56.7935 13.496C56.7722 13.4533 56.7295 13.464 56.6655 13.528C56.6655 13.5707 56.7295 13.6133 56.8575 13.656ZM58.3935 14.616C58.4148 14.5947 58.3935 14.552 58.3295 14.488L58.2335 14.552C58.2548 14.5733 58.2762 14.584 58.2975 14.584C58.3402 14.584 58.3722 14.5947 58.3935 14.616ZM58.4255 15.128C58.4468 15.0853 58.4362 15.0427 58.3935 15C58.3508 14.9573 58.2975 14.9573 58.2335 15C58.2548 15.0427 58.3188 15.0853 58.4255 15.128ZM61.0815 15.448C61.1028 15.384 61.0922 15.3307 61.0495 15.288C61.0282 15.2667 60.9748 15.2773 60.8895 15.32C60.8895 15.3627 60.9535 15.4053 61.0815 15.448ZM59.0335 16.536L59.0655 16.472L58.7775 16.312V16.504L59.0335 16.536ZM57.3375 20.344C57.3802 20.344 57.4228 20.2907 57.4655 20.184L57.5295 20.024V19.8L57.3055 19.704C57.0495 19.704 56.9002 19.736 56.8575 19.8V19.832C56.8575 19.896 56.9322 19.96 57.0815 20.024L57.2095 20.184C57.2735 20.2907 57.3162 20.344 57.3375 20.344ZM59.0975 23.736V23.768C59.0975 23.768 59.0975 23.7573 59.0975 23.736ZM58.3615 24.184L58.3295 24.088C58.3082 24.1093 58.3188 24.1413 58.3615 24.184ZM56.3775 26.648C56.3988 26.648 56.4522 26.6053 56.5375 26.52C56.5588 26.4773 56.5482 26.4347 56.5055 26.392C56.4842 26.3493 56.4415 26.36 56.3775 26.424V26.648ZM57.0175 26.648L57.0815 26.552H56.9215L57.0175 26.648ZM66.5968 27.416C66.5541 27.416 66.5434 27.416 66.5648 27.416C66.5434 27.416 66.5008 27.3947 66.4368 27.352L66.2768 27.288C66.2341 27.3093 66.1808 27.32 66.1168 27.32C66.0741 27.32 66.0208 27.3307 65.9568 27.352L65.5088 27.096C65.4448 26.9467 65.3594 26.872 65.2528 26.872C65.2314 26.8507 65.2101 26.8507 65.1888 26.872C65.1674 26.8933 65.1248 26.904 65.0608 26.904C65.0608 26.904 64.9541 26.8187 64.7408 26.648L64.4848 26.552C64.4208 26.488 64.3461 26.4133 64.2608 26.328C64.1968 26.2427 64.1114 26.1467 64.0048 26.04L63.7488 25.848V25.784C63.7488 25.6987 63.6954 25.5707 63.5888 25.4C63.4821 25.2933 63.3968 25.208 63.3328 25.144C63.2901 25.0587 63.2581 25.0053 63.2368 24.984V24.6C63.3434 24.664 63.4074 24.6533 63.4288 24.568C63.4714 24.504 63.4288 24.44 63.3008 24.376C63.2154 24.312 63.1728 24.2587 63.1728 24.216V23.832C63.1728 23.768 63.1728 23.704 63.1728 23.64C63.1728 23.576 63.1621 23.512 63.1408 23.448C63.1194 23.3413 63.0981 23.2453 63.0768 23.16C63.0768 23.0533 63.0874 22.9573 63.1088 22.872L63.1728 22.552C63.1514 22.424 63.1408 22.296 63.1408 22.168C63.1408 22.0187 63.1408 21.8693 63.1408 21.72C63.1408 21.6347 63.1728 21.528 63.2368 21.4L63.3328 21.144C63.3114 20.9733 63.2901 20.792 63.2688 20.6C63.2474 20.3867 63.2261 20.1733 63.2048 19.96C63.2048 19.896 63.2901 19.6933 63.4608 19.352C63.5034 19.3307 63.5461 19.3093 63.5888 19.288C63.6314 19.2667 63.6741 19.2347 63.7168 19.192C63.7168 19.1707 63.6208 19.096 63.4288 18.968L63.3328 18.296C63.3328 18.1893 63.3754 18.1253 63.4608 18.104C63.5248 18.0613 63.5461 17.9867 63.5247 17.88L63.9408 17.592C63.9194 17.5067 63.8448 17.4533 63.7168 17.432C63.6954 17.432 63.6208 17.4533 63.4928 17.496C63.4288 17.4533 63.3968 17.4107 63.3968 17.368C63.3968 17.24 63.4608 17.1333 63.5888 17.048C63.7168 16.9413 63.7808 16.8773 63.7808 16.856L63.6208 16.312C63.6208 16.312 63.7061 16.1627 63.8768 15.864C64.0261 15.8427 64.1008 15.8 64.1008 15.736C64.1008 15.6933 64.0688 15.64 64.0048 15.576C63.9194 15.512 63.8768 15.4587 63.8768 15.416C63.8768 15.3947 63.8981 15.3627 63.9408 15.32C64.0048 15.192 64.0688 14.9573 64.1328 14.616L64.3248 14.424L64.4208 14.104C64.5488 14.0613 64.6981 13.9973 64.8688 13.912L65.2848 13.4C65.4981 13.1227 65.6794 12.9947 65.8288 13.016L65.9248 13.048C65.9248 13.0267 66.0101 12.9947 66.1808 12.952C66.6928 12.7813 66.9808 12.7067 67.0448 12.728L67.2048 12.76C67.3328 12.6747 67.4288 12.6 67.4928 12.536L67.6528 12.568C67.6954 12.568 67.7274 12.5787 67.7488 12.6C67.7701 12.6213 67.7914 12.632 67.8128 12.632L68.0688 12.6L68.3568 12.856C68.3568 12.856 68.4208 12.8347 68.5488 12.792L68.7088 12.728C68.7941 12.7707 68.8901 12.8133 68.9968 12.856C69.1034 12.8987 69.2101 12.9413 69.3168 12.984C69.4234 12.9413 69.5728 12.9413 69.7648 12.984L69.7328 13.144V13.176C69.7328 13.304 69.8501 13.368 70.0848 13.368H70.3408C70.3408 13.368 70.4794 13.624 70.7568 14.136L70.9488 14.072C71.0341 14.072 71.0874 14.104 71.1088 14.168L71.4608 15.384C71.4394 15.4267 71.4288 15.5013 71.4288 15.608C71.4288 15.6933 71.4288 15.7893 71.4288 15.896L71.5248 16.12C71.5674 16.248 71.5888 16.312 71.5888 16.312L71.5248 16.408C71.5034 16.4293 71.4928 16.4613 71.4928 16.504V16.984C71.4714 17.0053 71.4501 17.048 71.4288 17.112C71.4074 17.1547 71.3861 17.2187 71.3648 17.304C71.2368 17.3253 71.1728 17.368 71.1728 17.432C71.1728 17.496 71.2688 17.6133 71.4608 17.784C71.6314 17.9547 71.7168 18.0613 71.7168 18.104C71.7168 18.1467 71.6634 18.168 71.5568 18.168L71.4608 18.616C71.4394 18.6373 71.4074 18.7013 71.3648 18.808C71.3648 18.936 71.4288 19.2133 71.5568 19.64C71.4714 19.6827 71.4074 19.736 71.3648 19.8C71.3648 19.8 71.3648 19.8853 71.3648 20.056L71.3968 20.376C71.3968 20.3973 71.3968 20.44 71.3968 20.504C71.3968 20.5467 71.3861 20.6107 71.3648 20.696L71.3328 21.016H71.1728C71.0021 21.016 70.8634 20.9307 70.7568 20.76C70.6714 20.6107 70.5968 20.536 70.5328 20.536C70.5114 20.536 70.4474 20.6 70.3408 20.728C70.2128 20.856 70.1274 20.92 70.0848 20.92L69.7328 20.888C69.6261 20.8667 69.5408 20.8667 69.4768 20.888C69.4128 20.888 69.3701 20.888 69.3488 20.888L68.6768 20.6C68.5274 20.728 68.3568 20.792 68.1648 20.792C67.9301 20.792 67.7274 20.7173 67.5568 20.568C67.5141 20.6107 67.4928 20.6427 67.4928 20.664H67.0128C66.9914 20.664 66.9808 20.664 66.9808 20.664C66.9808 20.6427 66.9701 20.632 66.9488 20.632H66.8208C66.6288 20.632 66.4688 20.7493 66.3408 20.984V21.112C66.3194 21.1547 66.2874 21.2187 66.2448 21.304C66.2234 21.368 66.1914 21.4427 66.1488 21.528C66.1488 21.5493 66.1701 21.5813 66.2128 21.624L66.2768 21.752V21.816C66.2768 21.8373 66.2768 21.88 66.2768 21.944C66.2768 21.9867 66.2661 22.0507 66.2448 22.136C66.2661 22.2 66.2768 22.3067 66.2768 22.456C66.2768 22.5413 66.2234 22.616 66.1168 22.68L66.0528 23.736C66.1808 23.8427 66.2341 24.024 66.2128 24.28H66.5968C66.7248 24.28 66.8208 24.3227 66.8848 24.408C66.9488 24.4933 66.9914 24.536 67.0128 24.536L67.2368 24.44L67.4608 24.6C67.5248 24.6 67.5674 24.568 67.5888 24.504L67.7808 24.056V23.576L67.8128 23.096C67.8341 23.032 67.8448 22.9787 67.8448 22.936C67.8661 22.872 67.8768 22.8293 67.8768 22.808L67.8448 22.712C67.8874 22.6267 67.9088 22.5627 67.9088 22.52C67.9088 22.456 67.9088 22.4133 67.9088 22.392L67.8448 22.104C67.9301 21.8907 68.0368 21.784 68.1648 21.784C68.3354 21.8693 68.5701 21.944 68.8688 22.008L69.0288 21.944C69.0928 21.9227 69.1461 21.912 69.1888 21.912C69.2314 21.912 69.3061 21.9973 69.4128 22.168C69.6474 22.0827 69.7648 22.04 69.7648 22.04L70.0208 22.2H70.0848C70.3408 22.2 70.5861 22.0933 70.8208 21.88L71.3648 22.392C71.2581 22.584 71.1408 22.8293 71.0128 23.128C70.9914 23.2347 70.9594 23.3627 70.9167 23.512C70.8954 23.6613 70.8528 23.8213 70.7888 23.992C70.6394 24.056 70.5648 24.1413 70.5648 24.248C70.5648 24.2907 70.5968 24.3653 70.6608 24.472C70.7248 24.6 70.7568 24.6853 70.7568 24.728L70.6927 24.824C70.7354 24.9307 70.7248 25.0267 70.6608 25.112L70.5648 25.272C70.5861 25.2933 70.5968 25.336 70.5968 25.4C70.5968 25.592 70.4581 25.752 70.1808 25.88L70.1168 25.944C70.1381 25.9653 70.1488 25.9973 70.1488 26.04C70.1488 26.1893 70.0634 26.2853 69.8928 26.328C69.6581 26.392 69.5194 26.4453 69.4768 26.488C69.4341 26.552 69.3701 26.6267 69.2848 26.712C69.1994 26.7973 69.1034 26.8933 68.9968 27C68.5701 27.2773 68.2714 27.3947 68.1008 27.352L67.7168 27.256C67.6101 27.256 67.5034 27.288 67.3968 27.352C67.2901 27.416 67.2048 27.4373 67.1408 27.416L67.0128 27.384H66.8528C66.7674 27.384 66.7034 27.384 66.6608 27.384C66.6181 27.4053 66.5861 27.416 66.5648 27.416C66.5861 27.416 66.5968 27.416 66.5968 27.416ZM67.2368 13.944L67.3008 13.816L67.2048 13.752C67.2048 13.816 67.2154 13.88 67.2368 13.944ZM69.4768 15.032C69.5834 15.032 69.6474 14.968 69.6688 14.84L69.6368 14.424H69.5728C69.5088 14.424 69.4768 14.3707 69.4768 14.264C69.4341 14.1573 69.3808 14.104 69.3168 14.104C69.2314 14.0613 69.1674 14.0933 69.1248 14.2C69.1034 14.2213 69.0928 14.2533 69.0928 14.296C69.1141 14.3387 69.1248 14.3813 69.1248 14.424L69.1568 14.648L69.0608 14.744L69.4768 15.032ZM66.6608 15.448C66.8314 15.384 66.8314 15.3093 66.6608 15.224C66.6181 15.2667 66.6181 15.3413 66.6608 15.448ZM70.8208 15.416L70.7568 15.288L70.6608 15.352L70.8208 15.416ZM66.5648 18.328L66.8848 18.232L67.3328 18.104C67.4821 18.104 67.6421 18.0933 67.8128 18.072C67.9834 18.0293 68.1754 17.9867 68.3888 17.944L68.4848 17.56C68.5061 17.5387 68.5594 17.5067 68.6448 17.464C68.5594 17.3787 68.4848 17.2933 68.4208 17.208C68.3781 17.1227 68.3674 17.0373 68.3888 16.952L68.4208 16.728V16.536C68.4208 16.344 68.3354 16.184 68.1648 16.056C68.1861 15.992 68.1968 15.9067 68.1968 15.8C68.1968 15.6293 68.0048 15.5333 67.6208 15.512C67.5568 15.512 67.4394 15.576 67.2688 15.704L66.7568 16.056C66.8421 16.12 66.8528 16.2053 66.7888 16.312C66.7674 16.3973 66.6928 16.44 66.5648 16.44V16.536C66.6288 16.4933 66.6928 16.5253 66.7568 16.632C66.7994 16.7173 66.8101 16.7707 66.7888 16.792L66.7248 17.752C66.7248 17.816 66.7248 17.8693 66.7248 17.912C66.7461 17.9547 66.7568 17.976 66.7568 17.976C66.7568 18.04 66.7248 18.072 66.6608 18.072C66.5968 18.0293 66.5434 17.976 66.5008 17.912L66.4048 17.976L66.3728 18.168L66.5648 18.328ZM68.8048 16.376C68.8474 16.44 68.9114 16.44 68.9968 16.376C68.9328 16.184 68.8688 16.184 68.8048 16.376ZM66.7568 17.944C66.7568 17.9867 66.7568 17.9973 66.7568 17.976C66.7568 17.976 66.7568 17.9653 66.7568 17.944ZM63.9408 20.472C64.0048 20.4293 64.0901 20.312 64.1968 20.12L64.1648 20.024H64.1008C63.9941 20.024 63.8554 20.0773 63.6848 20.184C63.7488 20.2907 63.8341 20.3867 63.9408 20.472ZM70.0848 20.248C70.1061 20.184 70.0954 20.1307 70.0528 20.088C70.0314 20.0667 69.9781 20.0773 69.8928 20.12C69.8928 20.1627 69.9568 20.2053 70.0848 20.248ZM64.5488 24.536L64.8048 24.408L64.7728 24.28L64.6128 24.248L64.5488 24.312V24.28L64.5168 24.152L64.4208 24.12L64.3568 24.472L64.5488 24.536ZM66.9808 25.048C67.0021 25.0053 66.9914 24.9627 66.9488 24.92C66.9061 24.8773 66.8634 24.8773 66.8208 24.92C66.8208 24.9627 66.8741 25.0053 66.9808 25.048Z" fill="#B63333"/>
</svg>
